<?xml version="1.0" encoding="UTF-8" standalone="no"?>
<!DOCTYPE svg PUBLIC "-//W3C//DTD SVG 1.1//EN"
 "http://www.w3.org/Graphics/SVG/1.1/DTD/svg11.dtd">
<!-- Generated by graphviz version 2.43.0 (0)
 -->
<!-- Title: G Pages: 1 -->
<svg width="796pt" height="121pt"
 viewBox="0.00 0.00 796.20 120.61" xmlns="http://www.w3.org/2000/svg" xmlns:xlink="http://www.w3.org/1999/xlink">
<g id="graph0" class="graph" transform="scale(1 1) rotate(0) translate(21.6 99.01)">
<title>G</title>
<polygon fill="#111111" stroke="transparent" points="-21.6,21.6 -21.6,-99.01 774.6,-99.01 774.6,21.6 -21.6,21.6"/>
<!-- buildGrids/radioOperation.js -->
<g id="node1" class="node">
<title>buildGrids/radioOperation.js</title>
<path fill="none" stroke="#ff6c60" d="M177.33,-35.41C177.33,-35.41 7.67,-35.41 7.67,-35.41 3.83,-35.41 0,-31.57 0,-27.74 0,-27.74 0,-20.07 0,-20.07 0,-16.24 3.83,-12.41 7.67,-12.41 7.67,-12.41 177.33,-12.41 177.33,-12.41 181.17,-12.41 185,-16.24 185,-20.07 185,-20.07 185,-27.74 185,-27.74 185,-31.57 181.17,-35.41 177.33,-35.41"/>
<text text-anchor="middle" x="92.5" y="-20.21" font-family="Arial" font-size="14.00" fill="#ff6c60">buildGrids/radioOperation.js</text>
</g>
<!-- network/runner.js -->
<g id="node2" class="node">
<title>network/runner.js</title>
<path fill="none" stroke="#ff6c60" d="M332.33,-75.41C332.33,-75.41 228.67,-75.41 228.67,-75.41 224.83,-75.41 221,-71.57 221,-67.74 221,-67.74 221,-60.07 221,-60.07 221,-56.24 224.83,-52.41 228.67,-52.41 228.67,-52.41 332.33,-52.41 332.33,-52.41 336.17,-52.41 340,-56.24 340,-60.07 340,-60.07 340,-67.74 340,-67.74 340,-71.57 336.17,-75.41 332.33,-75.41"/>
<text text-anchor="middle" x="280.5" y="-60.21" font-family="Arial" font-size="14.00" fill="#ff6c60">network/runner.js</text>
</g>
<!-- buildGrids/radioOperation.js&#45;&gt;network/runner.js -->
<g id="edge1" class="edge">
<title>buildGrids/radioOperation.js&#45;&gt;network/runner.js</title>
<path fill="none" stroke="#757575" d="M147.3,-35.48C168.7,-40.08 193.49,-45.41 215.78,-50.2"/>
<polygon fill="#757575" stroke="#757575" points="215.31,-53.68 225.82,-52.36 216.78,-46.84 215.31,-53.68"/>
</g>
<!-- network/streamDataGet.js -->
<g id="node3" class="node">
<title>network/streamDataGet.js</title>
<path fill="none" stroke="#ff6c60" d="M543.33,-77.41C543.33,-77.41 384.67,-77.41 384.67,-77.41 380.83,-77.41 377,-73.57 377,-69.74 377,-69.74 377,-62.07 377,-62.07 377,-58.24 380.83,-54.41 384.67,-54.41 384.67,-54.41 543.33,-54.41 543.33,-54.41 547.17,-54.41 551,-58.24 551,-62.07 551,-62.07 551,-69.74 551,-69.74 551,-73.57 547.17,-77.41 543.33,-77.41"/>
<text text-anchor="middle" x="464" y="-62.21" font-family="Arial" font-size="14.00" fill="#ff6c60">network/streamDataGet.js</text>
</g>
<!-- network/runner.js&#45;&gt;network/streamDataGet.js -->
<g id="edge2" class="edge">
<title>network/runner.js&#45;&gt;network/streamDataGet.js</title>
<path fill="none" stroke="#757575" d="M340.18,-64.55C348.68,-64.65 357.61,-64.75 366.62,-64.84"/>
<polygon fill="#757575" stroke="#757575" points="366.77,-68.35 376.81,-64.96 366.85,-61.35 366.77,-68.35"/>
</g>
<!-- network/streamMetaGet.js -->
<g id="node4" class="node">
<title>network/streamMetaGet.js</title>
<path fill="none" stroke="#ff6c60" d="M544.33,-36.41C544.33,-36.41 383.67,-36.41 383.67,-36.41 379.83,-36.41 376,-32.57 376,-28.74 376,-28.74 376,-21.07 376,-21.07 376,-17.24 379.83,-13.41 383.67,-13.41 383.67,-13.41 544.33,-13.41 544.33,-13.41 548.17,-13.41 552,-17.24 552,-21.07 552,-21.07 552,-28.74 552,-28.74 552,-32.57 548.17,-36.41 544.33,-36.41"/>
<text text-anchor="middle" x="464" y="-21.21" font-family="Arial" font-size="14.00" fill="#ff6c60">network/streamMetaGet.js</text>
</g>
<!-- network/runner.js&#45;&gt;network/streamMetaGet.js -->
<g id="edge3" class="edge">
<title>network/runner.js&#45;&gt;network/streamMetaGet.js</title>
<path fill="none" stroke="#757575" d="M335.46,-52.31C355.49,-48.01 378.39,-43.09 399.21,-38.61"/>
<polygon fill="#757575" stroke="#757575" points="400.2,-41.98 409.24,-36.46 398.73,-35.14 400.2,-41.98"/>
</g>
<!-- network/streamActivity.js -->
<g id="node5" class="node">
<title>network/streamActivity.js</title>
<path fill="none" stroke="#ff6c60" d="M745.33,-36.41C745.33,-36.41 595.67,-36.41 595.67,-36.41 591.83,-36.41 588,-32.57 588,-28.74 588,-28.74 588,-21.07 588,-21.07 588,-17.24 591.83,-13.41 595.67,-13.41 595.67,-13.41 745.33,-13.41 745.33,-13.41 749.17,-13.41 753,-17.24 753,-21.07 753,-21.07 753,-28.74 753,-28.74 753,-32.57 749.17,-36.41 745.33,-36.41"/>
<text text-anchor="middle" x="670.5" y="-21.21" font-family="Arial" font-size="14.00" fill="#ff6c60">network/streamActivity.js</text>
</g>
<!-- network/streamDataGet.js&#45;&gt;network/streamActivity.js -->
<g id="edge5" class="edge">
<title>network/streamDataGet.js&#45;&gt;network/streamActivity.js</title>
<path fill="none" stroke="#757575" d="M522.51,-54.38C547.23,-49.42 576.29,-43.59 602.02,-38.44"/>
<polygon fill="#757575" stroke="#757575" points="602.95,-41.82 612.07,-36.42 601.58,-34.96 602.95,-41.82"/>
</g>
<!-- network/streamMetaGet.js&#45;&gt;buildGrids/radioOperation.js -->
<g id="edge6" class="edge">
<title>network/streamMetaGet.js&#45;&gt;buildGrids/radioOperation.js</title>
<path fill="none" stroke="#757575" d="M375.79,-24.67C321.71,-24.52 251.98,-24.34 195.36,-24.18"/>
<polygon fill="#757575" stroke="#757575" points="195.32,-20.68 185.31,-24.16 195.3,-27.68 195.32,-20.68"/>
</g>
<!-- network/streamActivity.js&#45;&gt;buildGrids/radioOperation.js -->
<g id="edge4" class="edge">
<title>network/streamActivity.js&#45;&gt;buildGrids/radioOperation.js</title>
<path fill="none" stroke="#757575" d="M613.57,-13.41C594.16,-9.95 572.21,-6.61 552,-4.91 429.64,5.43 288.41,-3.57 195.39,-12.36"/>
<polygon fill="#757575" stroke="#757575" points="195.04,-8.88 185.42,-13.32 195.71,-15.85 195.04,-8.88"/>
</g>
</g>
</svg>
