<?xml version="1.0" encoding="UTF-8" standalone="no"?>
<svg
   version="1.0"
   width="100px"
   height="100px"
   id="copy-icon"
   sodipodi:docname="copy-done-icon.svg"
   inkscape:version="1.4 (1:1.4+202410161351+e7c3feb100)"
   xml:space="preserve"
   xmlns:inkscape="http://www.inkscape.org/namespaces/inkscape"
   xmlns:sodipodi="http://sodipodi.sourceforge.net/DTD/sodipodi-0.dtd"
   xmlns="http://www.w3.org/2000/svg"
   xmlns:svg="http://www.w3.org/2000/svg"><defs
     id="defs2" /><sodipodi:namedview
     id="namedview2"
     pagecolor="#ffffff"
     bordercolor="#111111"
     borderopacity="1"
     inkscape:showpageshadow="0"
     inkscape:pageopacity="0"
     inkscape:pagecheckerboard="1"
     inkscape:deskcolor="#d1d1d1"
     inkscape:zoom="2.3180488"
     inkscape:cx="42.708334"
     inkscape:cy="53.708965"
     inkscape:current-layer="g2"
     inkscape:window-width="1280"
     inkscape:window-height="731"
     inkscape:window-x="0"
     inkscape:window-y="0"
     inkscape:window-maximized="1" /><metadata
     id="metadata1" /><g
     transform="matrix(0.1,0,0,-0.1,-627.94301,668.07594)"
     fill="#000000"
     stroke="none"
     id="g2"><path
       id="path2"
       style="opacity:0;fill:#313043;fill-rule:evenodd;stroke-width:2.34946;stroke-linecap:round;stroke-linejoin:round;paint-order:stroke fill markers"
       transform="scale(1,-1)"
       d="m 7279.4302,-6180.7593 a 500,500 0 0 1 -500,500 500,500 0 0 1 -500,-500 500,500 0 0 1 500,-500 500,500 0 0 1 500,500 z" /><g
       id="g3"
       transform="matrix(0.95392991,0,0,0.95392991,301.89501,392.3088)"><path
         d="m 6628.5631,-5825.7115 q 0,34.2649 -13.8912,62.0471 -13.8911,27.3193 -42.5995,43.5256 -28.2453,15.7433 -72.2339,15.7433 -61.584,0 -93.9967,-33.3387 -31.9496,-33.8018 -31.9496,-88.9033 v -212.9975 h 41.6734 v 214.3866 q 0,40.2843 21.2997,62.5101 21.7628,22.2258 65.2884,22.2258 44.9147,0 64.8253,-23.6149 20.3737,-24.078 20.3737,-61.5841 v -213.9235 h 41.2104 z m 178.27,-213.9235 q 61.5841,0 90.7555,23.6149 29.6344,23.1519 29.6344,70.3818 0,26.3932 -9.7238,43.9886 -9.7238,17.5955 -25.004,28.2453 -14.8173,10.1869 -31.4866,16.2064 l 90.7554,148.1721 h -48.619 l -80.1055,-136.5962 h -65.7514 v 136.5962 h -41.6735 v -330.6091 z m -2.3152,36.117 h -47.2298 v 122.705 h 49.545 q 40.2843,0 58.8058,-15.7433 18.5216,-16.2063 18.5216,-47.2298 0,-32.4127 -19.4476,-45.8408 -19.4476,-13.8911 -60.195,-13.8911 z m 199.1063,294.4921 v -330.6091 h 41.6734 v 293.5661 h 144.4678 v 37.043 z"
         id="text1"
         style="font-size:463.038px;font-family:Roboto;-inkscape-font-specification:'Roboto, Normal';fill:#fc4a1a;fill-rule:evenodd;stroke:#fc4a1a;stroke-width:21.8975;stroke-linecap:round;stroke-linejoin:round;paint-order:stroke fill markers"
         transform="scale(1,-1)"
         aria-label="URL" /><path
         d="m 6409.5198,-6174.1636 q -32.8757,0 -58.8058,-13.4281 -25.4671,-13.4281 -40.2843,-41.6734 -14.3542,-28.2453 -14.3542,-72.2339 0,-45.8408 15.2802,-74.5491 15.2803,-28.7084 41.2104,-42.1365 26.3932,-13.4281 59.7319,-13.4281 18.9846,0 36.58,4.1674 17.5955,3.7043 28.7084,9.2607 l -12.502,33.8018 q -11.113,-4.1674 -25.9302,-7.8717 -14.8172,-3.7043 -27.7823,-3.7043 -73.16,0 -73.16,93.9967 0,44.9147 17.5955,68.9927 18.0585,23.6149 53.2494,23.6149 20.3736,0 35.6539,-4.1673 15.7433,-4.1673 28.7083,-10.1868 v 36.1169 q -12.502,6.4826 -27.7822,9.7238 -14.8173,3.7043 -36.117,3.7043 z m 338.4806,-129.1876 q 0,61.5841 -31.4866,95.3859 -31.0236,33.8017 -84.2729,33.8017 -32.8757,0 -58.8059,-14.8172 -25.4671,-15.2802 -40.2843,-43.9886 -14.8172,-29.1714 -14.8172,-70.3818 0,-61.584 31.0236,-94.9228 31.0235,-33.3387 84.2729,-33.3387 33.8017,0 59.2688,15.2803 25.9302,14.8172 40.2843,43.5255 14.8173,28.2454 14.8173,69.4557 z m -187.5304,0 q 0,43.9886 17.1324,69.9188 17.5954,25.4671 55.5645,25.4671 37.5061,0 55.1016,-25.4671 17.5954,-25.9302 17.5954,-69.9188 0,-43.9886 -17.5954,-68.9926 -17.5955,-25.0041 -55.5646,-25.0041 -37.9691,0 -55.1015,25.0041 -17.1324,25.004 -17.1324,68.9926 z m 369.9671,-128.2615 q 45.8408,0 73.6231,31.9496 28.2453,31.9497 28.2453,96.3119 0,63.4362 -28.2453,96.3119 -27.7823,32.8757 -74.0861,32.8757 -28.7084,0 -47.6929,-10.6498 -18.5215,-11.113 -29.1714,-25.4671 h -2.7782 q 0.926,7.8716 1.8521,19.9106 0.9261,12.039 0.9261,20.8367 v 101.8684 h -40.7474 v -359.3175 h 33.3388 l 5.5564,33.8018 h 1.8522 q 11.1129,-16.2064 29.1714,-27.3193 18.0585,-11.1129 48.1559,-11.1129 z m -7.4086,34.2648 q -37.9691,0 -53.7124,21.2998 -15.2802,21.2997 -16.2063,64.8253 v 7.8716 q 0,45.8408 14.8172,70.8448 15.2803,24.5411 56.0276,24.5411 22.6889,0 37.043,-12.5021 14.8173,-12.502 21.7628,-33.8017 7.4086,-21.7628 7.4086,-49.5451 0,-42.5995 -16.6693,-68.0666 -16.2064,-25.4671 -50.4712,-25.4671 z m 125.946,-29.6344 h 43.5256 l 53.7124,141.2266 q 6.9456,18.5215 12.502,35.6539 5.5565,16.6694 8.3347,31.9496 h 1.8522 q 2.7782,-11.5759 8.7977,-30.0974 6.0195,-18.9846 12.502,-37.9692 l 50.4711,-140.7635 h 43.9887 l -106.9618,282.4532 q -12.9651,35.1909 -33.8018,56.0276 -20.3737,20.8367 -56.4906,20.8367 -11.1129,0 -19.4476,-1.3891 -8.3347,-0.9261 -14.3542,-2.3152 v -32.4127 q 5.0934,0.9261 12.039,1.8522 7.4086,0.926 15.2802,0.926 21.2998,0 34.2648,-12.039 13.4281,-12.0389 20.8368,-31.9496 l 12.965,-32.8757 z"
         id="text2"
         style="font-size:463.038px;font-family:Roboto;-inkscape-font-specification:'Roboto, Normal';fill:#fc4a1a;fill-rule:evenodd;stroke:#fc4a1a;stroke-width:21.8975;stroke-linecap:round;stroke-linejoin:round;paint-order:stroke fill markers"
         transform="scale(1,-1)"
         aria-label="copy" /></g></g></svg>
