<?xml version="1.0" encoding="UTF-8" standalone="no"?>
<svg
   version="1.0"
   width="100px"
   height="100px"
   id="copy-icon"
   sodipodi:docname="copy-done-name-icon.svg"
   inkscape:version="1.4 (1:1.4+202410161351+e7c3feb100)"
   xml:space="preserve"
   xmlns:inkscape="http://www.inkscape.org/namespaces/inkscape"
   xmlns:sodipodi="http://sodipodi.sourceforge.net/DTD/sodipodi-0.dtd"
   xmlns="http://www.w3.org/2000/svg"
   xmlns:svg="http://www.w3.org/2000/svg"><defs
     id="defs2" /><sodipodi:namedview
     id="namedview2"
     pagecolor="#ffffff"
     bordercolor="#111111"
     borderopacity="1"
     inkscape:showpageshadow="0"
     inkscape:pageopacity="0"
     inkscape:pagecheckerboard="1"
     inkscape:deskcolor="#d1d1d1"
     inkscape:zoom="2.39859"
     inkscape:cx="53.573141"
     inkscape:cy="58.57608"
     inkscape:current-layer="g2"
     inkscape:window-width="1280"
     inkscape:window-height="731"
     inkscape:window-x="0"
     inkscape:window-y="0"
     inkscape:window-maximized="1" /><metadata
     id="metadata1" /><g
     transform="matrix(0.1,0,0,-0.1,-627.94301,668.07594)"
     fill="#000000"
     stroke="none"
     id="g2"><circle
       style="opacity:0;fill:#313043;fill-opacity:1;fill-rule:evenodd;stroke-width:2.34946;stroke-linecap:round;stroke-linejoin:round;paint-order:stroke fill markers"
       id="path2"
       cx="6779.4302"
       cy="-6180.7593"
       transform="scale(1,-1)"
       r="500" /><path
       d="m 6420.9201,-6065.8198 q 33.9752,0 51.3168,16.6338 17.3415,16.2798 17.3415,53.0863 v 123.5143 h -30.7901 v -121.3908 q 0,-45.6543 -42.469,-45.6543 -31.4979,0 -43.5308,17.6955 -12.0329,17.6954 -12.0329,50.9628 v 98.3868 h -31.144 v -189.6953 h 25.1275 l 4.6008,25.8354 h 1.7696 q 9.2016,-14.8642 25.4814,-21.9424 16.2798,-7.4321 34.3292,-7.4321 z m 199.2508,0.3539 q 34.683,0 51.3168,15.2181 16.6337,15.2181 16.6337,48.4856 v 129.1768 h -22.6502 l -6.0164,-26.8971 h -1.4157 q -12.3868,15.572 -26.1892,23.0041 -13.4486,7.432 -37.5144,7.432 -25.8354,0 -42.823,-13.4485 -16.9876,-13.8025 -16.9876,-42.823 0,-28.3127 22.2963,-43.5308 22.2962,-15.572 68.6583,-16.9876 l 32.2057,-1.0618 v -11.325 q 0,-23.7119 -10.2633,-32.9136 -10.2634,-9.2016 -29.0206,-9.2016 -14.8642,0 -28.3127,4.6008 -13.4485,4.2469 -25.1275,9.9095 l -9.5556,-23.358 q 12.3868,-6.7243 29.3745,-11.3251 16.9876,-4.9548 35.3909,-4.9548 z m 9.2016,101.218 q -35.3909,1.4157 -49.1934,11.3251 -13.4485,9.9095 -13.4485,27.9588 0,15.9259 9.5555,23.358 9.9095,7.4321 25.1276,7.4321 24.0658,0 39.9917,-13.0946 15.9259,-13.4486 15.9259,-41.0535 v -16.9876 z m 325.5966,-101.5719 q 32.2057,0 48.1316,16.6338 15.9259,16.2798 15.9259,53.0863 v 123.5143 h -30.7901 v -122.0987 q 0,-44.9464 -38.5761,-44.9464 -27.6049,0 -39.6378,15.9259 -11.679,15.9259 -11.679,46.3621 v 104.7571 h -30.79 v -122.0987 q 0,-44.9464 -38.93,-44.9464 -28.6667,0 -39.6378,17.6955 -10.9712,17.6954 -10.9712,50.9628 v 98.3868 h -31.144 v -189.6953 h 25.1275 l 4.6009,25.8354 h 1.7695 q 8.8477,-14.8642 23.7119,-21.9424 15.2181,-7.4321 32.2057,-7.4321 44.5926,0 58.0411,31.8518 h 1.7695 q 9.5556,-16.2798 25.8354,-24.0658 16.6337,-7.786 35.037,-7.786 z m 196.0654,0 q 24.4197,0 41.7612,10.6173 17.6955,10.6173 26.8971,30.0823 9.5556,19.1111 9.5556,44.9464 v 18.7572 h -129.8846 q 0.7078,32.2057 16.2798,49.1933 15.9259,16.6338 44.2386,16.6338 18.0494,0 31.8518,-3.1852 14.1564,-3.5391 29.0206,-9.9095 v 27.251 q -14.5103,6.3704 -28.6667,9.2017 -14.1563,3.1851 -33.6213,3.1851 -26.8971,0 -47.7777,-10.9711 -20.5268,-10.9712 -32.2058,-32.5597 -11.3251,-21.9423 -11.3251,-53.4402 0,-31.144 10.2634,-53.4403 10.6173,-22.2962 29.3745,-34.3292 19.111,-12.0329 44.2386,-12.0329 z m -0.3539,25.4815 q -22.2963,0 -35.3909,14.5103 -12.7408,14.1563 -15.2181,39.6378 h 96.6171 q -0.3539,-24.0658 -11.325,-38.93 -10.9712,-15.2181 -34.6831,-15.2181 z"
       id="text1"
       style="font-size:353.909px;font-family:Roboto;-inkscape-font-specification:'Roboto, Normal';fill:#fc4a1a;fill-rule:evenodd;stroke:#fc4a1a;stroke-width:16.7367;stroke-linecap:round;stroke-linejoin:round;paint-order:stroke fill markers"
       transform="scale(1,-1)"
       aria-label="name" /><path
       d="m 6429.4205,-6281.1528 q -30.2136,0 -54.0441,-12.3407 -23.4049,-12.3408 -37.0223,-38.299 -13.1919,-25.9582 -13.1919,-66.3849 0,-42.1288 14.043,-68.5125 14.0429,-26.3838 37.8734,-38.7246 24.256,-12.3407 54.8952,-12.3407 17.4473,0 33.618,3.8299 16.1706,3.4043 26.3837,8.5108 l -11.4897,31.0648 q -10.213,-3.8299 -23.8305,-7.2343 -13.6174,-3.4043 -25.5326,-3.4043 -67.236,0 -67.236,86.3854 0,41.2778 16.1707,63.406 16.5962,21.7028 48.9376,21.7028 18.7239,0 32.7669,-3.8299 14.4685,-3.8299 26.3837,-9.362 v 33.1925 q -11.4897,5.9576 -25.5326,8.9364 -13.6174,3.4043 -33.1925,3.4043 z m 311.0725,-118.7267 q 0,56.5973 -28.937,87.662 -28.5114,31.0647 -77.449,31.0647 -30.2136,0 -54.0441,-13.6174 -23.4049,-14.0429 -37.0223,-40.4267 -13.6174,-26.8092 -13.6174,-64.6826 0,-56.5974 28.5114,-87.2366 28.5115,-30.6391 77.449,-30.6391 31.0647,0 54.4697,14.0429 23.8304,13.6174 37.0223,40.0012 13.6174,25.9581 13.6174,63.8316 z m -172.3453,0 q 0,40.4266 15.7451,64.2571 16.1707,23.4049 51.0653,23.4049 34.469,0 50.6397,-23.4049 16.1707,-23.8305 16.1707,-64.2571 0,-40.4267 -16.1707,-63.4061 -16.1707,-22.9794 -51.0653,-22.9794 -34.8946,0 -50.6397,22.9794 -15.7451,22.9794 -15.7451,63.4061 z m 340.0094,-117.8757 q 42.1289,0 67.6615,29.3625 25.9582,29.3625 25.9582,88.5132 0,58.2995 -25.9582,88.5131 -25.5326,30.2136 -68.087,30.2136 -26.3837,0 -43.831,-9.7875 -17.0218,-10.213 -26.8093,-23.4049 h -2.5533 q 0.8511,7.2343 1.7022,18.2984 0.8511,11.0641 0.8511,19.1495 v 93.6197 h -37.4479 v -330.2222 h 30.6392 l 5.1065,31.0647 h 1.7022 q 10.213,-14.894 26.8093,-25.1071 16.5962,-10.213 44.2565,-10.213 z m -6.8087,31.4902 q -34.8946,0 -49.3631,19.5751 -14.0429,19.575 -14.894,59.5761 v 7.2343 q 0,42.1288 13.6174,65.1082 14.0429,22.5538 51.4908,22.5538 20.8517,0 34.0435,-11.4897 13.6174,-11.4897 20.0006,-31.0647 6.8087,-20.0005 6.8087,-45.5332 0,-39.15 -15.3196,-62.555 -14.894,-23.4049 -46.3843,-23.4049 z m 115.7477,-27.2348 h 40.0011 l 49.3631,129.7909 q 6.3832,17.0218 11.4897,32.7669 5.1065,15.3196 7.6598,29.3626 h 1.7022 q 2.5532,-10.6386 8.0853,-27.6604 5.5321,-17.4473 11.4897,-34.8946 l 46.3843,-129.3654 h 40.4267 l -98.3007,259.5819 q -11.9152,32.3413 -31.0647,51.4908 -18.7239,19.1495 -51.9164,19.1495 -10.213,0 -17.8728,-1.2767 -7.6598,-0.8511 -13.1919,-2.1277 v -29.7881 q 4.681,0.8511 11.0642,1.7022 6.8087,0.8511 14.0429,0.8511 19.575,0 31.4903,-11.0642 12.3407,-11.0641 19.1494,-29.3625 l 11.9153,-30.2136 z"
       id="text2"
       style="font-size:425.544px;font-family:Roboto;-inkscape-font-specification:'Roboto, Normal';fill:#fc4a1a;fill-rule:evenodd;stroke:#fc4a1a;stroke-width:20.1244;stroke-linecap:round;stroke-linejoin:round;paint-order:stroke fill markers"
       transform="scale(1,-1)"
       aria-label="copy" /></g></svg>
