<?xml version="1.0" encoding="UTF-8"?>
<svg id="deer-icon" width="100" height="100" version="1.0" xmlns="http://www.w3.org/2000/svg">
	<path id="path1" d="m89.51 93.723c-1.9569-0.05031-3.914-0.09539-5.8709-0.14606-0.20674-0.02049-0.41247-0.04691-0.61493-0.09443-0.21172-0.04786-0.43198-0.07085-0.62917-0.16688-0.16346-0.0725-0.33631-0.12667-0.49347-0.21147-0.20312-0.13134-0.41874-0.24595-0.61146-0.3918-0.15996-0.1514-0.32988-0.29365-0.48364-0.45076-0.1487-0.19914-0.31626-0.38588-0.45008-0.59508-0.0972-0.19646-0.20659-0.3879-0.29605-0.58755-0.09458-0.31473-0.22175-0.62221-0.26274-0.95033-0.06017-0.31052-0.04756-0.62916-0.05081-0.94399 0.0017-3.8535 0-7.7071 1e-3 -11.561-0.04864-0.0701-0.08433-0.07144-0.10329 0.01606-2.0215 4.5557-4.0408 9.1124-6.0637 13.667-0.09791 0.1831-0.20103 0.36294-0.32235 0.53169-0.12523 0.17807-0.23161 0.37297-0.39619 0.51885-0.12931 0.1229-0.24528 0.26148-0.38348 0.37391-0.19908 0.13729-0.3873 0.29282-0.59581 0.4149-0.20127 0.08975-0.39788 0.19223-0.60205 0.27404-0.31719 0.08159-0.62837 0.19581-0.9566 0.22463-0.30916 0.04678-0.62341 0.02494-0.93489 0.02248-1.5942-0.03254-3.1886-0.05658-4.7827-0.0926-0.20537-0.01894-0.40961-0.04486-0.61091-0.09051-0.21002-0.04557-0.42811-0.06771-0.62378-0.16196-0.16333-0.07144-0.33597-0.12444-0.49308-0.20819-0.20475-0.13064-0.42196-0.24434-0.61613-0.38994-0.15937-0.14917-0.32842-0.28932-0.48171-0.44415-0.14966-0.1956-0.31398-0.38142-0.45098-0.58584-0.09955-0.19809-0.21133-0.39105-0.30319-0.59237-0.07261-0.23556-0.16267-0.4669-0.22057-0.70629-0.02498-0.21831-0.06288-0.43603-0.07961-0.65472 0.01408-0.25432 0.0087-0.51075 0.04002-0.76351 0.03884-0.21677 0.06504-0.43683 0.14354-0.64402 0.14277-0.43351 0.33225-0.84955 0.4973-1.2747 1.4878-3.6916 2.9757-7.3833 4.4635-11.075-0.02956-2.4358-0.05912-4.8716-0.08867-7.3074h-15.514c0.02419 1.4659 0.05314 2.932 0.07434 4.3979-0.01106 0.20674-0.03085 0.41238-0.06891 0.61601-0.03828 0.21074-0.05232 0.42872-0.13894 0.62705-0.0658 0.16711-0.11298 0.3428-0.19137 0.5041-0.16211 0.27753-0.29883 0.57252-0.50573 0.82096-0.17774 0.2429-0.40463 0.44391-0.61333 0.6594-0.49734 0.49489-0.992 0.9925-1.4887 1.4881 0.04208 3.8694 0.08654 7.7389 0.12715 11.608-0.01294 0.20457-0.0312 0.40843-0.07115 0.60971-0.0404 0.21598-0.05544 0.43972-0.14526 0.64275-0.06667 0.16612-0.11469 0.34096-0.19388 0.50122-0.12462 0.20846-0.23162 0.42909-0.37137 0.6275-0.1443 0.16373-0.27928 0.33689-0.42945 0.49469-0.1911 0.15525-0.37211 0.32466-0.57208 0.46792-0.19319 0.10477-0.38082 0.22169-0.57745 0.31892-0.24196 0.08231-0.47846 0.18404-0.72562 0.24905-0.21732 0.04404-0.43269 0.10297-0.6558 0.10663-0.43827 0.03116-0.87768 3e-3 -1.3165 5e-3 -1.2341-0.01429-2.4685-0.02237-3.7024-0.04217-0.20256-0.01666-0.40393-0.04124-0.60265-0.08453-0.20972-0.04392-0.42741-0.06374-0.62322-0.15626-0.16448-0.07026-0.33806-0.12214-0.49644-0.20473-0.20531-0.1287-0.42296-0.24041-0.61791-0.38399-0.1608-0.14784-0.33124-0.28655-0.48596-0.44016-0.15254-0.19737-0.32282-0.38276-0.46045-0.59057-0.09915-0.19278-0.21053-0.38028-0.30206-0.57635-0.07692-0.24259-0.17195-0.48044-0.23292-0.7275-0.04179-0.21275-0.09327-0.42457-0.09433-0.64266-0.02056-0.45939-4e-3 -0.91942-0.0095-1.3791v-21.07c-0.83476-0.39133-1.5894-0.93186-2.2932-1.5231-2.1655-1.8017-3.9437-4.047-5.2936-6.5145-1.0115-1.834-1.8698-3.7477-2.6808-5.6773-0.98744-2.3586-1.89-4.7519-2.7449-7.1614-1.7234 0.11965-3.4534 0.18124-5.1803 0.10853-1.3988-0.06079-2.8049-0.22569-4.1428-0.65482-1.3638-0.42767-2.6648-1.1188-3.6914-2.124-0.56835-0.55334-1.0214-1.2182-1.3568-1.9357-0.20372-0.42622-0.35923-0.87313-0.54565-1.3066-0.19248-0.39694-0.3655-0.80472-0.48006-1.2316-0.3508-1.2548-0.2717-2.6244 0.22415-3.8295 0.25672-0.63223 0.62403-1.2111 0.99348-1.782 0.47993-0.71421 1.0749-1.3396 1.6606-1.9664 1.1011-1.1595 2.2648-2.2576 3.443-3.3381 1.283-1.1724 2.5903-2.3181 3.9152-3.443-0.9578-1.401-1.5682-3.0207-1.8856-4.6827-0.14496-0.78338-0.22935-1.5807-0.21481-2.378 0.01572-0.74895 0.18638-1.4953 0.51432-2.1697 0.56167-1.1667 1.5748-2.0977 2.768-2.593 1.4913-0.63218 3.254-0.61689 4.7174 0.08862 0.10878 0.05251 0.21586 0.10853 0.32102 0.16795 0.0071-0.5583 0.0026-1.1169 0.01739-1.675 0.0671-1.3493 0.67427-2.6649 1.6682-3.5817 1.091-1.0223 2.6024-1.5526 4.0905-1.51 1.4384 0.03108 2.8703 0.60617 3.8902 1.6285 0.14038 0.14019 0.27252 0.28859 0.39715 0.44292 0.77058-0.86537 1.8304-1.4531 2.9591-1.6986 1.5877-0.35155 3.3255-0.05797 4.6716 0.8675 0.33353 0.2282 0.63981 0.49577 0.91266 0.7938 0.7686-1.046 1.9412-1.773 3.2085-2.0374 1.2718-0.27492 2.6433-0.0895 3.7823 0.54538 1.0704 0.59221 1.9167 1.58 2.3258 2.7341 0.22104 0.60202 0.3126 1.2445 0.3236 1.8836 0.04884 0.66579 0.1222 1.3312 0.11189 1.9998-0.0065 0.98346-0.17726 1.974-0.57616 2.8769-0.26841 0.60924-0.58268 1.1988-0.93826 1.7616-0.85087 1.3448-1.9765 2.5281-3.3315 3.3712-0.88519 0.55549-1.8632 0.95678-2.876 1.2104-0.86411 0.2536-1.729 0.53049-2.6284 0.62677-1.6319 0.19551-3.2792 0.14867-4.9184 0.10717-0.42144-0.01196-0.84293-0.02366-1.2646-0.0266 0.35555 0.31217 0.68254 0.65483 1.0258 0.9802 4.2348 4.109 8.4697 8.2179 12.704 12.327 0.95117 0.38907 1.9024 0.77813 2.8535 1.1672h20.308c-0.03158-2.5042-0.06536 1.1537-0.09394-1.3505 0.0082-1.1178 0.40863-2.2404 1.163-3.0725 0.69673-0.78044 1.6826-1.2937 2.7216-1.4162 1.0911-0.13873 2.2175 0.1499 3.1355 0.74771 0.38695 0.24537 0.73262 0.54892 1.0559 0.8722 1.147 1.101 2.4734 2.0413 3.4407 3.303 1.018 1.3279 0.87117 2.3131 0.87481 3.5446 0.0012 0.42506 0.02465-1.1055-0.02162 1.275 1.2868 1.1753 3.3932 2.3457 4.6758 3.5256 1.0547 1.0084 1.8611 2.2898 2.2438 3.7026 0.27431 0.98777 0.33523 2.0243 0.26059 3.0437-0.23344 4.4226-0.46688 8.8453-0.70033 13.268 0.48004 0.3545 0.96614 0.70117 1.4387 1.0656 1.0142 0.81796 1.7338 1.994 1.9904 3.2723 0.1286 0.59781 0.1333 1.2124 0.12046 1.821-0.04811 6.0643-0.09384 12.129-0.14343 18.193-0.01688 0.20436-0.03905 0.4079-0.0828 0.60846-0.0446 0.21531-0.06411 0.43881-0.15766 0.64028-0.06946 0.16404-0.12042 0.33715-0.2022 0.49516-0.12583 0.20405-0.23807 0.41784-0.37648 0.61331-0.15038 0.16441-0.29165 0.3384-0.44782 0.49672-0.19674 0.15244-0.38102 0.32312-0.5882 0.46072-0.1921 0.09964-0.37903 0.21115-0.57442 0.30321-0.24267 0.07754-0.48038 0.17408-0.72778 0.23469-0.21861 0.04049-0.43559 0.09561-0.65934 0.09519-0.12553 6e-3 -0.25117 0.0095-0.37686 0.0083z" style="fill-rule:evenodd;fill:#000000;font-variation-settings:'wght' 600;paint-order:stroke fill markers;stroke-linecap:round;stroke-linejoin:round"/>
	<path id="path2" d="m38.78 63.703s-1.0878 0.17011-1.6113 0.04883c-0.64544-0.14954-1.236-0.51949-1.7578-0.92774-1.5979-1.2501-2.9684-2.8262-4.0527-4.541-3.1342-4.9566-6.8273-16.309-6.8273-16.309s-6.9003 0.86755-10.214 0.09766c-1.0068-0.23394-2.0465-0.64214-2.7832-1.3672-0.58623-0.57699-0.74884-1.4648-1.123-2.1973-0.40268-0.78823-0.29088-1.4636 0.0488-2.0508 0.2351-0.40637 0.47676-0.81453 0.78125-1.1719 2.7489-3.226 9.3262-8.6426 9.3262-8.6426 3.154-2.9228 9.3863-2.1448 11.597 0l13.989 13.574 4.2969 1.7578h25.146l-0.14649-5.8401c-0.01912-0.76213 0.59485-0.75237 1.0742-0.29297l3.5156 3.3691c0.38974 0.3735 0.64335 0.82938 0.63476 1.3672l-0.0488 3.0569 4.9805 4.541c1.228 1.1197 1.4772 2.3071 1.416 3.4668l-0.83008 15.723 2.9297 2.1484c0.49333 0.36177 0.73762 0.84968 0.73242 1.5137l-0.14649 18.701-5.957-0.14649v-13.623l-5.3711-5.3223-8.4473 19.043-5.2246-0.09766 5.1758-12.842-0.14649-12.061h-23.535l0.14649 8.4473-3.0273 3.0273 0.14648 13.281-4.6875-0.04883z" style="fill-rule:evenodd;fill:#bb9167;font-variation-settings:'wght' 600;paint-order:stroke fill markers;stroke-linecap:round;stroke-linejoin:round"/>
	<path id="path7" d="m24.64 29.703a1.7324 2.6953 0 0 1-1.7324 2.6953 1.7324 2.6953 0 0 1-1.7324-2.6953 1.7324 2.6953 0 0 1 1.7324-2.6953 1.7324 2.6953 0 0 1 1.7324 2.6953z" style="fill-rule:evenodd;fill:#000000;font-variation-settings:'wght' 600;paint-order:stroke fill markers;stroke-linecap:round;stroke-linejoin:round;stroke-width:1.1002"/>
	<path id="path8" d="m13.29 35.683c0.69025 0 1.404-0.03502 1.8851 0.12999 1.2723 0.43637 1.0829 1.4986-0.35962 1.9102-0.43377 0.12377-1.3205 0.36823-1.8867 0.36823-1.4886 0-1.8774-0.19647-2.7616-0.60994-0.12786-0.05979 0.31857-1.42 0.68665-1.6075 0.48909-0.24916 1.6182-0.19093 2.4362-0.19093z" style="fill-rule:evenodd;fill:#000000;font-variation-settings:'wght' 600;paint-order:stroke fill markers;stroke-linecap:round;stroke-linejoin:round;stroke-width:.88392"/>
	<path id="path9" d="m30.33 27.743c-1.4853 1.2857-2.1186 0.71702-2.9348 0.54647l-0.22836-3.4437s-2.4541 0.152-3.6607-0.03026c-4.033-0.60919-4.9377-5.2898-4.8835-6.9941 0.05078-1.5967 2.9934-1.8157 2.9568 0.0663-0.02908 1.4954 0.19006 2.8597 1.3347 3.4913 1.653 0.91216 3.9638 1.3232 3.9728 0.0442l0.06629-9.546c0.01256-1.8084 3.1754-1.8925 3.2262 0.0442 0 0-0.08719 3.9594 0.02349 5.7452 0.01523 0.24566 0.46985 0.37694 0.68913 0.26516 0.40749-0.20773 0.16768-1.065 0.55874-1.3258 1.2738 0.1087 3.4926 0.08495 4.1757 0.17677 0.0682-2.0363 0.07435-4.8096 0.07435-4.8096 0.0621-1.6952 3.181-1.6281 3.1746 0l0.01028 4.3672 3.4471 0.08839c1.2052-0.76455 1.7384-1.7824 2.1521-3.0052l0.05759-1.8562c0.04645-1.497 2.6053-1.6939 2.6409 0.01027 0.02252 1.0762 0.32877 2.3619-0.13532 3.3851-1.1517 2.5392-2.79 3.6075-4.3257 4.0034-0.71916 0.1854-1.4214 0.45786-2.1575 0.55621-2.1904 0.29266-5.5821-0.03359-6.6291 0.08839-1.0775 0.12553-2.2328-0.34637-2.8284 1.4142-0.25917 0.76603-0.64619 1.5002-0.77752 2.2981-0.2201 1.3373 5e-5 4.4199 5e-5 4.4199" style="fill-rule:evenodd;fill:#f3b000;font-variation-settings:'wght' 600;paint-order:stroke fill markers;stroke-linecap:round;stroke-linejoin:round"/>
	<path id="path4" d="m24.53 41.973h7.8364l3.3146 9.4301c0.35568 1.0119 0.22818 1.97-0.0691 2.624-0.49286 1.0844-1.4599 1.9748-2.7621 2.0026-2.5338 0.0539-2.9925-0.31343-3.3143-1.1525l-4.9469-12.9" style="fill-rule:evenodd;fill:#f2f2f2;font-variation-settings:'wght' 600;paint-order:stroke fill markers;stroke-linecap:round;stroke-linejoin:round"/>
	<path id="path5" d="m46.2 64.673 0.12521-6.0244h19.843l6.9385 6.0244z" style="fill-rule:evenodd;fill:#f2f2f2;font-variation-settings:'wght' 600;paint-order:stroke fill markers;stroke-linecap:round;stroke-linejoin:round"/>
	<path id="path6" d="m69.74 64.673 3 1e-5 5.6426 5.957-8.4473 19.043-5.2246-0.09766 5.1758-12.842z" style="fill-rule:evenodd;fill:#8e562e;font-variation-settings:'wght' 600;opacity:.5;paint-order:stroke fill markers;stroke-linecap:round;stroke-linejoin:round"/>
</svg>
