<?xml version="1.0" encoding="UTF-8" standalone="no"?>
<!-- Created with Inkscape (http://www.inkscape.org/) -->

<svg
   id="goldenDisk"
   width="100"
   heigth="100"
   version="1.1"
   xml:space="preserve"
   sodipodi:docname="default_icon.svg"
   inkscape:version="1.4.1-rc (06eac75fbf, 2025-03-29)"
   viewBox="0 0 105 105"
   xmlns:inkscape="http://www.inkscape.org/namespaces/inkscape"
   xmlns:sodipodi="http://sodipodi.sourceforge.net/DTD/sodipodi-0.dtd"
   xmlns:xlink="http://www.w3.org/1999/xlink"
   xmlns="http://www.w3.org/2000/svg"
   xmlns:svg="http://www.w3.org/2000/svg"><defs
   id="defs18515"><linearGradient
     id="linearGradient5"
     inkscape:collect="always"><stop
       style="stop-color:#9b7f00;stop-opacity:1;"
       offset="0"
       id="stop5" /><stop
       style="stop-color:#c19c00;stop-opacity:0;"
       offset="1"
       id="stop6" /></linearGradient><linearGradient
     inkscape:collect="always"
     xlink:href="#linearGradient5"
     id="linearGradient6"
     x1="102.75005"
     y1="24.726337"
     x2="71.387985"
     y2="72.677399"
     gradientUnits="userSpaceOnUse"
     gradientTransform="matrix(1.2616454,0,0,1.2617771,-31.252405,-2.246575)" /><linearGradient
     inkscape:collect="always"
     xlink:href="#linearGradient5"
     id="linearGradient3"
     gradientUnits="userSpaceOnUse"
     gradientTransform="matrix(-1.0965342,0,0,-1.0966486,121.72658,94.841786)"
     x1="89.945953"
     y1="18.846043"
     x2="71.387985"
     y2="72.677399" /><filter
     inkscape:collect="always"
     style="color-interpolation-filters:sRGB"
     id="filter15"
     x="-0.048615681"
     y="-0.048302626"
     width="1.0972314"
     height="1.0966053"><feGaussianBlur
       inkscape:collect="always"
       stdDeviation="1.9429836"
       id="feGaussianBlur15" /></filter><filter
     inkscape:collect="always"
     style="color-interpolation-filters:sRGB"
     id="filter16"
     x="-0.60454973"
     y="-0.60448669"
     width="2.2090995"
     height="2.2089734"><feGaussianBlur
       inkscape:collect="always"
       stdDeviation="1.5285816"
       id="feGaussianBlur16" /></filter></defs><sodipodi:namedview
   id="namedview18513"
   pagecolor="#ffffff"
   bordercolor="#111111"
   borderopacity="1"
   inkscape:showpageshadow="0"
   inkscape:pageopacity="0"
   inkscape:pagecheckerboard="1"
   inkscape:deskcolor="#d1d1d1"
   showgrid="false"
   inkscape:zoom="4.4500586"
   inkscape:cx="55.055455"
   inkscape:cy="51.23528"
   inkscape:current-layer="goldenDisk"
   inkscape:window-width="1366"
   inkscape:window-height="736"
   inkscape:window-x="0"
   inkscape:window-y="0"
   inkscape:window-maximized="1" />
				<path
   d="m 49.238425,4.3295238 c -3.143113,0.2549784 -6.265262,0.758673 -9.310914,1.5876435 -4.180816,1.1575891 -8.208896,2.8667585 -11.939328,5.0947897 -3.755562,2.252506 -7.199451,5.022001 -10.221399,8.202197 -3.002822,3.18214 -5.574357,6.773472 -7.624834,10.64777 -2.0273815,3.856069 -3.5410254,7.98253 -4.4737349,12.244843 -0.9392722,4.295591 -1.2962146,8.719528 -1.052864,13.112201 0.250523,4.391649 1.0977674,8.745009 2.5047672,12.910445 1.4268383,4.19073 3.4358087,8.17667 5.9275117,11.828133 2.485802,3.605485 5.457326,6.868183 8.806963,9.678592 3.366627,2.807133 7.110584,5.149836 11.100035,6.952071 3.99413,1.783489 8.225657,3.023071 12.548191,3.671191 4.278073,0.62465 8.636441,0.68162 12.926622,0.14141 4.336165,-0.542556 8.593637,-1.693733 12.625002,-3.392126 4.059342,-1.714161 7.875099,-4.003007 11.324844,-6.755967 3.412509,-2.746202 6.453315,-5.956502 9.014914,-9.520204 2.546334,-3.569542 4.610164,-7.482948 6.118601,-11.607523 1.500292,-4.124679 2.436763,-8.453326 2.787648,-12.831252 C 101.21805,45.2565 98.150948,33.951002 91.836329,24.884039 84.973665,14.902498 74.229114,7.7368254 62.421707,5.2647627 58.093577,4.3272937 53.652171,4.0569121 49.236552,4.3314093 Z m 2.915047,43.0417322 c 0.469905,-0.02919 0.942529,1.64e-4 1.403195,0.09993 1.256528,0.263097 2.400069,1.024978 3.13049,2.087318 0.672095,0.964782 0.998784,2.168417 0.901117,3.343102 -0.03735,0.465977 -0.13633,0.926149 -0.296002,1.365147 -0.160558,0.438961 -0.380938,0.857035 -0.65195,1.236929 -0.272649,0.379359 -0.595982,0.720266 -0.959192,1.012547 -0.367147,0.292987 -0.774435,0.535962 -1.206486,0.7184 -0.429049,0.180764 -0.88172,0.304287 -1.343245,0.362027 -0.456692,0.05761 -0.919758,0.0514 -1.375092,-0.01509 -0.460075,-0.06896 -0.910638,-0.200488 -1.335751,-0.390311 -0.424558,-0.191813 -0.823807,-0.442273 -1.182131,-0.741026 -0.356493,-0.299106 -0.672139,-0.645781 -0.936712,-1.029517 -0.265192,-0.388629 -0.479469,-0.813528 -0.631343,-1.259556 -0.149739,-0.443331 -0.23936,-0.90527 -0.266027,-1.372689 -0.02591,-0.467465 0.01244,-0.940023 0.112406,-1.397201 0.09928,-0.453628 0.26006,-0.892516 0.47585,-1.302924 0.218247,-0.412279 0.491592,-0.794554 0.811193,-1.133224 0.321624,-0.338474 0.688743,-0.633279 1.088459,-0.873015 0.397026,-0.237131 0.825204,-0.41796 1.270181,-0.541157 0.324193,-0.08822 0.656499,-0.142568 0.99104,-0.169701 z"
   style="fill:#000000;fill-rule:evenodd;stroke-width:1.0207;filter:url(#filter15)"
   id="path15" /><!-- center of rotation --><animateTransform
   attributeName="transform"
   attributeType="XML"
   dur="10s"
   from="0,0,0"
   repeatCount="indefinite"
   to="359,0,0"
   type="rotate" /><ellipse
   cx="52.544323"
   cy="52.483303"
   style="fill:#808080;stroke-width:1.01144;stroke:none;filter:url(#filter16)"
   id="circle18911"
   rx="3.0341556"
   ry="3.034472" /><path
   d="M 48.997682,0.77468237 C 45.622615,1.0484775 42.27006,1.5893435 38.999647,2.4794898 34.510298,3.7225059 30.184956,5.5578075 26.179228,7.9502615 22.146516,10.368996 18.448477,13.342873 15.203517,16.757759 c -3.224422,3.416974 -5.9857294,7.273336 -8.1875262,11.433547 -2.1769973,4.140637 -3.8023441,8.57162 -4.8038851,13.14848 -1.008588,4.612595 -1.39187189,9.363006 -1.1305626,14.079847 0.2690109,4.715741 1.1787797,9.390368 2.6896124,13.863202 1.5321352,4.499995 3.6893625,8.780086 6.3649465,12.701018 2.669247,3.87156 5.860062,7.375036 9.456894,10.392846 3.615075,3.014292 7.635326,5.529881 11.919188,7.465116 4.288886,1.915105 8.832689,3.246165 13.474214,3.942115 4.593784,0.67075 9.273788,0.73192 13.880573,0.15185 4.656162,-0.5826 9.227824,-1.81873 13.556693,-3.64246 4.358911,-1.840662 8.456261,-4.298419 12.160588,-7.25454 3.664343,-2.948864 6.929553,-6.396076 9.680191,-10.22277 2.734247,-3.832964 4.950382,-8.035169 6.570137,-12.464127 1.61101,-4.42907 2.61659,-9.077159 2.99337,-13.778165 C 104.81327,44.721961 101.51982,32.582147 94.739199,22.846067 87.370088,12.127914 75.832618,4.4334338 63.153855,1.7789395 58.506321,0.77228775 53.737151,0.48195264 48.995671,0.77670708 Z m 3.13017,46.21809863 c 0.504582,-0.03134 1.012085,1.76e-4 1.506747,0.10731 1.349256,0.282513 2.577187,1.100618 3.361512,2.241356 0.721693,1.035981 1.072491,2.328441 0.967617,3.589814 -0.04011,0.500365 -0.146391,0.994497 -0.317846,1.465892 -0.172407,0.471355 -0.409051,0.920281 -0.700063,1.328211 -0.292769,0.407354 -0.639964,0.773419 -1.029978,1.08727 -0.394241,0.314609 -0.831586,0.575514 -1.295521,0.771416 -0.460712,0.194104 -0.946789,0.326743 -1.442373,0.388744 -0.490395,0.06186 -0.987634,0.05519 -1.47657,-0.0162 -0.494027,-0.07405 -0.977841,-0.215283 -1.434326,-0.419115 -0.455889,-0.205968 -0.884602,-0.474911 -1.269369,-0.795711 -0.382801,-0.32118 -0.721741,-0.693438 -1.005839,-1.105493 -0.284762,-0.417309 -0.514853,-0.873564 -0.677934,-1.352508 -0.16079,-0.476048 -0.257025,-0.972076 -0.285659,-1.47399 -0.02782,-0.501962 0.01336,-1.009394 0.120701,-1.500311 0.106602,-0.487104 0.279251,-0.958381 0.510966,-1.399076 0.234353,-0.442704 0.52787,-0.85319 0.871057,-1.216853 0.345359,-0.363452 0.739571,-0.680013 1.168784,-0.937441 0.426326,-0.254631 0.886102,-0.448804 1.363917,-0.581093 0.348118,-0.09473 0.704947,-0.153089 1.064177,-0.182224 z"
   style="fill:#dfbe00;fill-rule:evenodd;stroke-width:1.09602"
   id="path14" /><path
   d="m 53.203409,50.319586 c -0.05652,0.08651 -0.113684,0.171873 -0.17396,0.255825 -0.372313,0.514693 -0.813837,0.977218 -1.309816,1.373771 -0.501353,0.39751 -1.05752,0.727165 -1.647503,0.974687 -0.183155,0.07667 -0.368758,0.146265 -0.557694,0.207216 l 15.566847,50.044155 c 3.968758,-1.44939 7.685195,-3.07539 11.079707,-4.870879 l 0.06396,0.112571 c 0.585253,-0.362448 1.161798,-0.728748 1.731924,-1.097482 4.412201,-2.502149 8.214288,-5.311751 11.20506,-8.434495 l -0.09977,-0.09977 c 3.177235,-2.959763 5.837032,-6.051182 7.840984,-9.25057 z"
   style="fill:url(#linearGradient6);fill-rule:evenodd;stroke-width:1.26172"
   id="path11" /><path
   d="m 51.585352,39.071484 c -0.881867,0.07109 -1.758177,0.211904 -2.612696,0.442969 -1.173005,0.322686 -2.302345,0.798065 -3.348926,1.419141 -1.053662,0.627923 -2.021096,1.399948 -2.869042,2.286621 -0.842504,0.887037 -1.56379,1.889562 -2.138965,2.969531 -0.568844,1.074911 -0.993352,2.224505 -1.255078,3.4125 -0.263537,1.197403 -0.363592,2.429981 -0.295313,3.654492 0.0703,1.224207 0.308634,2.438233 0.703418,3.599121 0.400336,1.168272 0.964034,2.279693 1.663184,3.297657 0.697462,1.005088 1.531513,1.915529 2.471191,2.698828 0.944593,0.782509 1.993988,1.433732 3.113086,1.935937 1.120615,0.497158 2.308338,0.844739 3.521191,1.025391 1.200312,0.174138 2.424082,0.18975 3.627832,0.03897 1.216596,-0.151258 2.410668,-0.471982 3.5417,-0.94541 1.138921,-0.477839 2.208967,-1.117351 3.17666,-1.884668 0.957468,-0.765566 1.810125,-1.660225 2.528613,-2.653711 0.714422,-0.995044 1.29334,-2.086169 1.716504,-3.236133 0.420948,-1.149762 0.684929,-2.355997 0.783398,-3.576563 0.257448,-3.076752 -0.60314,-6.227373 -2.374804,-8.754785 -1.925475,-2.78251 -4.941906,-4.780204 -8.254395,-5.469433 -1.21437,-0.261329 -2.458915,-0.336918 -3.697558,-0.26045 z m 0.535253,7.850391 c 0.514391,-0.03174 1.031759,1.78e-4 1.536036,0.108691 1.375484,0.286151 2.627284,1.114789 3.426855,2.270215 0.735722,1.04932 1.093339,2.358421 0.986426,3.636035 -0.04089,0.506807 -0.149236,1.007302 -0.324024,1.484766 -0.175758,0.477424 -0.417002,0.93213 -0.713671,1.345313 -0.29846,0.412598 -0.652404,0.783377 -1.05,1.101269 -0.401904,0.31866 -0.84775,0.582924 -1.320704,0.781348 -0.469667,0.196603 -0.965193,0.33095 -1.47041,0.39375 -0.499928,0.06266 -1.006832,0.0559 -1.505273,-0.01641 -0.50363,-0.075 -0.996848,-0.218055 -1.462207,-0.424511 -0.464751,-0.20862 -0.901797,-0.481026 -1.294043,-0.805957 -0.390243,-0.325315 -0.735771,-0.702366 -1.025391,-1.119727 -0.290298,-0.422682 -0.524861,-0.884811 -0.691113,-1.369922 -0.163915,-0.482177 -0.262021,-0.984592 -0.291211,-1.492968 -0.02836,-0.508425 0.01362,-1.022391 0.123047,-1.519629 0.108674,-0.493375 0.284679,-0.97072 0.520898,-1.41709 0.238909,-0.448404 0.538131,-0.864175 0.887989,-1.23252 0.352073,-0.368132 0.753948,-0.688769 1.191504,-0.949511 0.434613,-0.25791 0.903326,-0.454583 1.390429,-0.588575 0.354885,-0.09595 0.718651,-0.15506 1.084863,-0.18457 z"
   style="fill:#9b8000;fill-rule:evenodd;stroke-width:1.01144"
   id="path8" /><path
   d="M 37.999277,3.2160591 C 34.549909,4.4757617 31.319842,5.8911977 28.369569,7.4517078 L 28.313982,7.3516533 C 27.805321,7.6666681 27.304229,7.98503 26.808715,8.3055081 22.973937,10.480201 19.671652,12.922112 17.072282,15.636182 l 0.08449,0.08671 c -2.761431,2.572419 -5.073141,5.259265 -6.814837,8.03995 l 39.721713,26.55674 c 0.340376,-0.329796 0.720124,-0.620065 1.127284,-0.862694 0.330472,-0.196111 0.6794,-0.360713 1.040568,-0.49138 z"
   style="fill:url(#linearGradient3);fill-rule:evenodd;stroke-width:1.09659"
   id="path13" /><path
   d="m 51.722754,41.083301 c -0.74974,0.06043 -1.494417,0.178862 -2.220996,0.375293 -0.997277,0.274337 -1.958617,0.679881 -2.848535,1.20791 -0.895814,0.533844 -1.717565,1.190378 -2.438379,1.944141 -0.716284,0.754147 -1.329937,1.604329 -1.819043,2.52246 -0.483624,0.913861 -0.843891,1.891882 -1.066406,2.901856 -0.224052,1.018065 -0.31029,2.067958 -0.252247,3.108984 0.05976,1.040824 0.263201,2.072551 0.598829,3.059766 0.340351,0.993183 0.818637,1.937987 1.412988,2.803418 0.592955,0.854487 1.303057,1.626706 2.102051,2.292773 0.80307,0.665267 1.696148,1.219626 2.647558,1.646778 0.952735,0.422672 1.961083,0.717977 2.99209,0.871582 1.020487,0.148052 2.060954,0.160994 3.084375,0.03281 1.034344,-0.128601 2.049023,-0.401414 3.010547,-0.803906 0.96828,-0.406235 1.878117,-0.949258 2.700879,-1.60166 0.814014,-0.650843 1.540089,-1.411265 2.151269,-2.25586 0.607368,-0.84594 1.100306,-1.772491 1.460157,-2.750097 0.357858,-0.977535 0.580741,-2.00362 0.664453,-3.041309 0.218874,-2.615816 -0.511773,-5.295626 -2.017969,-7.444336 C 60.247448,43.588231 57.682703,41.89064 54.866602,41.304785 53.83418,41.082621 52.77591,41.018283 51.722754,41.083301 Z m 0.397851,5.838574 c 0.514391,-0.03174 1.031759,1.78e-4 1.536036,0.108691 1.375484,0.286151 2.627284,1.114789 3.426855,2.270215 0.735722,1.04932 1.093339,2.358421 0.986426,3.636035 -0.04089,0.506807 -0.149236,1.007302 -0.324024,1.484766 -0.175758,0.477424 -0.417002,0.93213 -0.713671,1.345313 -0.29846,0.412598 -0.652404,0.783377 -1.05,1.101269 -0.401904,0.31866 -0.84775,0.582924 -1.320704,0.781348 -0.469667,0.196603 -0.965193,0.33095 -1.47041,0.39375 -0.499928,0.06266 -1.006832,0.0559 -1.505273,-0.01641 -0.50363,-0.075 -0.996848,-0.218055 -1.462207,-0.424511 -0.464751,-0.20862 -0.901797,-0.481026 -1.294043,-0.805957 -0.390243,-0.325315 -0.735771,-0.702366 -1.025391,-1.119727 -0.290298,-0.422682 -0.524861,-0.884811 -0.691113,-1.369922 -0.163915,-0.482177 -0.262021,-0.984592 -0.291211,-1.492968 -0.02836,-0.508425 0.01362,-1.022391 0.123047,-1.519629 0.108674,-0.493375 0.284679,-0.97072 0.520898,-1.41709 0.238909,-0.448404 0.538131,-0.864175 0.887989,-1.23252 0.352073,-0.368132 0.753948,-0.688769 1.191504,-0.949511 0.434613,-0.25791 0.903326,-0.454583 1.390429,-0.588575 0.354885,-0.09595 0.718651,-0.15506 1.084863,-0.18457 z"
   style="fill:#f8dc00;fill-rule:evenodd;stroke-width:1.01144"
   id="path5" /></svg>
