<?xml version="1.0" encoding="UTF-8" standalone="no"?>
<svg
   version="1.1"
   id="download-icon"
   width="100px"
   height="100px"
   sodipodi:docname="download-icon.svg"
   inkscape:version="1.4.1 (1:1.4.1+202503302257+93de688d07)"
   xmlns:inkscape="http://www.inkscape.org/namespaces/inkscape"
   xmlns:sodipodi="http://sodipodi.sourceforge.net/DTD/sodipodi-0.dtd"
   xmlns="http://www.w3.org/2000/svg"
   xmlns:svg="http://www.w3.org/2000/svg">
  <defs
     id="defs1" />
  <sodipodi:namedview
     id="namedview1"
     pagecolor="#ffffff"
     bordercolor="#111111"
     borderopacity="1"
     inkscape:showpageshadow="0"
     inkscape:pageopacity="0"
     inkscape:pagecheckerboard="1"
     inkscape:deskcolor="#d1d1d1"
     inkscape:zoom="2.8359196"
     inkscape:cx="88.331138"
     inkscape:cy="56.948019"
     inkscape:current-layer="download-icon"
     inkscape:window-width="1280"
     inkscape:window-height="731"
     inkscape:window-x="0"
     inkscape:window-y="0"
     inkscape:window-maximized="1" />
  <path
     id="path1"
     style="fill:#0c3958;fill-opacity:1;stroke-width:2.77064"
     d="m 49.751088,1.7382926 c -2.613067,0.073526 -4.778475,2.5714056 -4.542781,5.1642502 0,17.7178152 0,35.4356302 0,53.1534442 -4.320631,-4.295724 -8.593033,-8.642932 -12.943815,-12.906477 -2.033373,-1.755125 -5.472997,-1.290245 -6.954004,0.956079 -1.467099,1.970126 -1.023695,4.958912 0.865404,6.498739 6.933148,6.913641 13.822967,13.873045 20.783149,20.758135 1.927668,1.651256 5.089705,1.348909 6.711758,-0.590344 6.934014,-6.955468 13.916506,-13.865236 20.820215,-20.849277 1.784649,-2.028887 1.311051,-5.499911 -0.949249,-6.981626 -1.969973,-1.45729 -4.950775,-1.012045 -6.488243,0.871767 -4.079697,4.081661 -8.159573,8.163144 -12.238996,12.245079 -0.01204,-17.964973 0.0241,-35.931128 -0.01808,-53.89536 C 54.649871,3.619515 52.291902,1.556327 49.751088,1.7382926 Z M 13.029236,65.812251 c -2.613119,0.07354 -4.7791358,2.571074 -4.5427814,5.164251 0.016611,7.660538 -0.0332,15.322965 0.024895,22.982324 0.1975244,2.520403 2.6365964,4.53432 5.1455814,4.308382 24.473107,-0.0098 48.947276,0.01954 73.419721,-0.01466 2.572744,-0.125632 4.667707,-2.602146 4.436911,-5.155819 -0.01661,-7.660538 0.0332,-15.322965 -0.02489,-22.982324 -0.202352,-2.656482 -2.914577,-4.739793 -5.53431,-4.250301 -2.452032,0.336126 -4.294499,2.77111 -4.044943,5.218598 0,5.860119 0,11.720238 0,17.580356 -21.272939,0 -42.545878,0 -63.818816,0 -0.01656,-6.182648 0.03314,-12.367183 -0.02489,-18.548653 -0.208394,-2.483748 -2.548162,-4.485445 -5.036472,-4.302159 z" />
</svg>
