<?xml version="1.0" encoding="UTF-8" standalone="no"?>
<svg
   xml:space="preserve"
   width="120"
   height="100"
   version="1.1"
   viewBox="0 0 120 100"
   id="dump-files-icon"
   sodipodi:docname="dump-files-icon.svg"
   inkscape:version="1.4.1-rc (06eac75fbf, 2025-03-29)"
   xmlns:inkscape="http://www.inkscape.org/namespaces/inkscape"
   xmlns:sodipodi="http://sodipodi.sourceforge.net/DTD/sodipodi-0.dtd"
   xmlns:xlink="http://www.w3.org/1999/xlink"
   xmlns="http://www.w3.org/2000/svg"
   xmlns:svg="http://www.w3.org/2000/svg"><sodipodi:namedview
   id="namedview1"
   pagecolor="#ffffff"
   bordercolor="#111111"
   borderopacity="1"
   inkscape:showpageshadow="0"
   inkscape:pageopacity="0"
   inkscape:pagecheckerboard="1"
   inkscape:deskcolor="#d1d1d1"
   inkscape:zoom="4.8717848"
   inkscape:cx="37.152708"
   inkscape:cy="44.542197"
   inkscape:current-layer="dump-files-icon"
   inkscape:window-width="1366"
   inkscape:window-height="736"
   inkscape:window-x="0"
   inkscape:window-y="0"
   inkscape:window-maximized="1"
   showguides="true"><sodipodi:guide
     position="124.53293,-9.7283129"
     orientation="0,-1"
     id="guide3"
     inkscape:locked="false" /><sodipodi:guide
     position="62.266463,90.275401"
     orientation="0,-1"
     id="guide11"
     inkscape:locked="false" /></sodipodi:namedview><defs
   id="defs1"><linearGradient
     id="linearGradient20"
     inkscape:collect="always"><stop
       style="stop-color:#dfbb00;stop-opacity:1;"
       offset="0"
       id="stop20" /><stop
       style="stop-color:#dfbb00;stop-opacity:0;"
       offset="1"
       id="stop21" /></linearGradient><linearGradient
     inkscape:collect="always"
     xlink:href="#linearGradient20"
     id="linearGradient21"
     x1="59.952766"
     y1="44.253716"
     x2="59.821659"
     y2="0.82105434"
     gradientUnits="userSpaceOnUse" /></defs>
 
<g
   id="g3"
   transform="translate(149.43189)"><g
     id="g34"
     transform="matrix(1.0532686,0,0,1.0532686,-3.1961175,-2.6634305)"><g
       id="g12"
       style="fill:#000000"
       transform="matrix(0.23574046,0,0,0.23574046,82.863952,135.84457)"><path
         d="m 42.201172,-263.42187 a 31.350948,31.350948 0 0 0 -31.351563,31.35156 31.350948,31.350948 0 0 0 31.351563,31.34961 31.350948,31.350948 0 0 0 31.349609,-31.34961 31.350948,31.350948 0 0 0 -31.349609,-31.35156 z m 0,19.1582 a 12.192036,12.192036 0 0 1 12.191406,12.19336 12.192036,12.192036 0 0 1 -12.191406,12.1914 12.192036,12.192036 0 0 1 -12.19336,-12.1914 12.192036,12.192036 0 0 1 12.19336,-12.19336 z"
         style="opacity:1;fill:#000000;stroke-width:1.17392"
         id="path11" /><path
         d="m 34.146486,-288.51392 c -0.75703,0.0186 -1.76072,0.14539 -3.0918,0.41016 -10.64864,2.11814 1.49955,4.3744 -8.53125,8.5293 -10.0308,4.15492 -3.03502,-6.03002 -12.0625,0.002 -9.02748,6.03197 3.0581,3.46729 -4.61914,11.14453 -7.67724,7.67724 -5.11256001,-4.41029 -11.14453,4.61719 -6.03199,9.02748 4.15489,2.03365 0,12.06445 -4.15489,10.0308 -6.4131,-2.11739 -8.53125,8.53125 -2.11815,10.64864 4.61719,0.28727 4.61719,11.14453 0,10.85726 -6.73534,0.49785 -4.61719,11.14649 2.11815,10.64864 4.37636,-1.49956 8.53125,8.53125 4.15492,10.03079 -6.03197,3.03502 0,12.0625 6.03196999,9.02748 3.46729,-3.0581 11.14453,4.61914 7.67724,7.67724 -4.40834,5.11256 4.61914,11.14453 9.02748,6.03199 2.0317,-4.1549 12.0625,0 10.0308,4.15489 -2.11739,6.41115 8.53125,8.5293 10.64864,2.11814 0.28923,-4.61524 11.14649,-4.61524 10.85726,0 0.49589,6.73338 11.14453,4.61524 10.64864,-2.11815 -1.49955,-4.37441 8.53125,-8.5293 10.0308,-4.15492 3.03697,6.03197 12.06445,0 9.027478,-6.03197 -3.06005,-3.46729 4.617188,-11.14453 7.677245,-7.67725 5.112563,4.40834 11.144531,-4.61914 6.031994,-9.02748 -4.152936,-2.03171 0.002,-12.0625 4.154896,-10.03081 6.411152,2.11739 8.529297,-8.53125 2.118148,-10.64864 -4.615234,-0.28923 -4.615234,-11.14649 0,-10.85726 6.733382,-0.49589 4.615234,-11.14453 -2.118145,-10.64864 -4.374401,1.49955 -8.529297,-8.53125 -4.154921,-10.0308 6.030015,-3.03697 -0.002,-12.06445 -6.031968,-9.02748 -3.467286,3.06005 -11.144531,-4.61719 -7.677238,-7.67724 4.41029,-5.11256 -4.617188,-11.14453 -9.02748,-6.03199 -2.03366,4.15294 -12.06445,-0.002 -10.0308,-4.1549 2.11739,-6.41116 -8.53125,-8.5293 -10.64864,-2.11815 -0.28727,4.61523 -11.14453,4.61523 -9.5001,1e-5 -2.75548,-5.15554 -8.05469,-5.02539 z m 8.05469,21.60938 a 34.834389,34.834389 0 0 1 34.83398,34.83398 34.834389,34.834389 0 0 1 -34.83398,34.83399 34.834389,34.834389 0 0 1 -34.83399,-34.83399 34.834389,34.834389 0 0 1 34.83399,-34.83398 z"
         style="fill:#000000"
         id="path12" /><circle
         style="opacity:1;fill:#000000;stroke-width:1.28"
         id="circle12"
         cx="42.200195"
         cy="-232.07129"
         r="9.2891703" /></g><g
       id="g24"
       style="fill:#000000"
       transform="matrix(0.23574046,0,0,0.23574046,36.270315,135.84457)"><path
         d="m 42.201172,-263.42187 a 31.350948,31.350948 0 0 0 -31.351563,31.35156 31.350948,31.350948 0 0 0 31.351563,31.34961 31.350948,31.350948 0 0 0 31.349609,-31.34961 31.350948,31.350948 0 0 0 -31.349609,-31.35156 z m 0,19.1582 a 12.192036,12.192036 0 0 1 12.191406,12.19336 12.192036,12.192036 0 0 1 -12.191406,12.1914 12.192036,12.192036 0 0 1 -12.19336,-12.1914 12.192036,12.192036 0 0 1 12.19336,-12.19336 z"
         style="opacity:1;fill:#000000;stroke-width:1.17392"
         id="path23" /><path
         d="m 34.146486,-288.51392 c -0.75703,0.0186 -1.76072,0.14539 -3.0918,0.41016 -10.64864,2.11814 1.49955,4.3744 -8.53125,8.5293 -10.0308,4.15492 -3.03502,-6.03002 -12.0625,0.002 -9.02748,6.03197 3.0581,3.46729 -4.61914,11.14453 -7.67724,7.67724 -5.11256001,-4.41029 -11.14453,4.61719 -6.03199,9.02748 4.15489,2.03365 0,12.06445 -4.15489,10.0308 -6.4131,-2.11739 -8.53125,8.53125 -2.11815,10.64864 4.61719,0.28727 4.61719,11.14453 0,10.85726 -6.73534,0.49785 -4.61719,11.14649 2.11815,10.64864 4.37636,-1.49956 8.53125,8.53125 4.15492,10.03079 -6.03197,3.03502 0,12.0625 6.03196999,9.02748 3.46729,-3.0581 11.14453,4.61914 7.67724,7.67724 -4.40834,5.11256 4.61914,11.14453 9.02748,6.03199 2.0317,-4.1549 12.0625,0 10.0308,4.15489 -2.11739,6.41115 8.53125,8.5293 10.64864,2.11814 0.28923,-4.61524 11.14649,-4.61524 10.85726,0 0.49589,6.73338 11.14453,4.61524 10.64864,-2.11815 -1.49955,-4.37441 8.53125,-8.5293 10.0308,-4.15492 3.03697,6.03197 12.06445,0 9.027478,-6.03197 -3.06005,-3.46729 4.617188,-11.14453 7.677245,-7.67725 5.112563,4.40834 11.144531,-4.61914 6.031994,-9.02748 -4.152936,-2.03171 0.002,-12.0625 4.154896,-10.03081 6.411152,2.11739 8.529297,-8.53125 2.118148,-10.64864 -4.615234,-0.28923 -4.615234,-11.14649 0,-10.85726 6.733382,-0.49589 4.615234,-11.14453 -2.118145,-10.64864 -4.374401,1.49955 -8.529297,-8.53125 -4.154921,-10.0308 6.030015,-3.03697 -0.002,-12.06445 -6.031968,-9.02748 -3.467286,3.06005 -11.144531,-4.61719 -7.677238,-7.67724 4.41029,-5.11256 -4.617188,-11.14453 -9.02748,-6.03199 -2.03366,4.15294 -12.06445,-0.002 -10.0308,-4.1549 2.11739,-6.41116 -8.53125,-8.5293 -10.64864,-2.11815 -0.28727,4.61523 -11.14453,4.61523 -9.5001,1e-5 -2.75548,-5.15554 -8.05469,-5.02539 z m 8.05469,21.60938 a 34.834389,34.834389 0 0 1 34.83398,34.83398 34.834389,34.834389 0 0 1 -34.83398,34.83399 34.834389,34.834389 0 0 1 -34.83399,-34.83399 34.834389,34.834389 0 0 1 34.83399,-34.83398 z"
         style="fill:#000000"
         id="path24" /><circle
         style="opacity:1;fill:#000000;stroke-width:1.28"
         id="circle24"
         cx="42.200195"
         cy="-232.07129"
         r="9.2891703" /></g></g><g
     id="g36"
     transform="matrix(1.0532686,0,0,1.0532686,-3.1961175,-2.6634305)"><path
       id="path20"
       style="fill:#000000;stroke-width:0.23574"
       d="m 87.46711,37.829488 v 5.820303 h -1.735823 l 0.03822,11.160837 4.307787,-0.124775 0.0663,-11.036062 h -0.990386 v -5.820303 z m 2.61018,16.856365 -0.08564,11.152549 c 12.42003,-0.471908 16.04832,5.80727 18.20266,13.070703 l 5.67988,0.136748 0.0686,-22.172034 c 0.002,-0.643036 0.12111,-1.45978 -1.0263,-2.463766 l -3.83216,-3.352854 c -0.15855,-4.902885 -1.02796,-6.081854 -2.41174,-9.307144 l 5.8332,-0.06814 c -1.36742,-1.242664 -2.29422,-2.195204 -4.72172,-2.327018 -6.26398,-0.340138 -12.114564,-0.818462 -17.772005,0.613269 z m 6.894489,-13.01269 8.211781,0.0087 c 0,0 1.1329,2.823167 1.57375,4.276938 0.18383,0.606226 0.35898,1.220061 0.44478,1.84771 0.21792,1.594341 0.17128,4.824391 0.17128,4.824391 0,0 -12.67704,1.143162 -12.67704,0.05111 0,-2.311947 -0.05157,-9.563144 -0.05157,-9.563144 -0.0116,-1.564806 0.296802,-1.420089 2.327018,-1.445752 z m -0.205354,12.511741 c 0.570391,-0.0093 1.127597,0.01575 1.414905,0.05203 0.729395,0.07217 0.518455,0.81119 0.100374,0.829236 -0.742939,0.04184 -1.4564,0.107048 -2.337607,0.03315 0,0 -0.673787,-0.07215 -0.780428,-0.235278 -0.121338,-0.185608 -0.10392,-0.462238 0.108659,-0.525353 0.34003,-0.100953 0.923705,-0.144523 1.494097,-0.153783 z m 12.019085,15.738899 h 3.63786 c 0.17425,0 0.31447,0.156491 0.31447,0.350848 0,0.194353 -0.14022,0.350847 -0.31447,0.350847 h -3.63786 c -0.17425,0 -0.31448,-0.156494 -0.31448,-0.350847 0,-0.194357 0.14023,-0.350848 0.31448,-0.350848 z m 0,1.524024 h 3.63786 c 0.17425,0 0.31447,0.08925 0.31447,0.199828 0,0.110579 -0.14022,0.199366 -0.31447,0.199366 h -3.63786 c -0.17425,0 -0.31448,-0.08879 -0.31448,-0.199366 0,-0.110581 0.14023,-0.199828 0.31448,-0.199828 z m 0,0.713669 h 3.63786 c 0.17425,0 0.31447,0.08925 0.31447,0.199825 0,0.110579 -0.14022,0.199366 -0.31447,0.199366 h -3.63786 c -0.17425,0 -0.31448,-0.08879 -0.31448,-0.199366 0,-0.110581 0.14023,-0.199825 0.31448,-0.199825 z m 0,0.714126 h 3.63786 c 0.17425,0 0.31447,0.08879 0.31447,0.199368 0,0.110577 -0.14022,0.199826 -0.31447,0.199826 h -3.63786 c -0.17425,0 -0.31448,-0.08925 -0.31448,-0.199826 0,-0.110583 0.14023,-0.199368 0.31448,-0.199368 z"
       sodipodi:nodetypes="ccccccccccccccccccsccscsscsccssccssssssssssssssssssssssssssssssss" /><g
       id="g35"><path
         style="fill:#000000;stroke-width:0.23574"
         d="m 37.917386,68.777508 c 7.72514,-4.828887 17.439358,-2.466866 21.775019,6.097007 l 19.258798,0.193555 c 1.806734,-3.853862 4.810704,-6.950289 9.774563,-8.806785 l 0.09678,-5.806672 h -4.645339 c -0.463015,0.968926 -0.834821,2.241882 -1.161333,3.665816 l -2.419447,0.01174 -0.09678,4.54856 -3.096892,-0.09678 L 77.2092,64.4225 H 75.225254 L 74.886533,44.679818 71.160584,46.80893 v 17.66196 l -30.48503,-0.09678 c -1.860982,-0.06949 -2.021561,1.24949 -2.758168,4.403391 z"
         id="path21"
         sodipodi:nodetypes="ccccccccccccccccc" /><path
         style="fill:#000000;stroke-width:0.23574"
         d="m 17.127893,67.229061 5.322783,-3.096892 15.871571,-0.387112 c 1.803422,-0.02564 2.962499,-0.345862 4.451782,-1.258111 L 77.323726,42.647483 73.839723,16.227126 c 0,0 0.540392,-1.178999 1.393971,-1.645223 0.762481,-0.416466 9.445151,-5.3227841 9.445151,-5.3227841 0.891035,-0.7855485 1.251791,-2.1960567 1.524251,-3.7017523 0,0 -12.581122,6.9438104 -15.048957,8.7342004 -1.277876,0.989761 -2.100136,4.511641 -2.564616,7.064786 L 22.257122,48.454155 c -0.05663,-0.0486 -7.487909,9.246943 -7.962321,10.278968 0,0 3.363397,3.474944 2.833092,8.495938 z"
         id="path22"
         sodipodi:nodetypes="ccccccsccccccc" /><g
         id="g28"
         transform="matrix(0.23574046,0,0,0.23574046,60.711226,59.164259)"><rect
           style="opacity:1;fill:#000000;stroke-width:0.814207"
           id="rect24"
           width="40.642193"
           height="24.23526"
           x="-215.52676"
           y="48.640388"
           ry="5.4682441" /><rect
           style="opacity:1;fill:#000000;stroke-width:0.814207"
           id="rect25"
           width="40.642193"
           height="24.23526"
           x="-199.92673"
           y="124.17739"
           ry="5.4682441" /><rect
           style="opacity:1;fill:#000000;stroke-width:0.814207"
           id="rect26"
           width="40.642193"
           height="24.23526"
           x="79.39782"
           y="160.52113"
           ry="5.4682441"
           transform="rotate(90)" /><rect
           style="opacity:1;fill:#000000;stroke-width:0.814207"
           id="rect27"
           width="40.642193"
           height="24.23526"
           x="109.00705"
           y="202.90297"
           ry="5.4682441"
           transform="rotate(90)" /><rect
           style="opacity:1;fill:#000000;stroke-width:0.814207"
           id="rect28"
           width="40.642193"
           height="24.23526"
           x="-231.85825"
           y="80.053833"
           ry="5.4682441" /></g></g></g></g><path
   d="m 94.777344,66.921875 c -0.306269,-0.01441 -0.615496,0.0049 -0.923828,0.0625 -2.308758,0.31648 -4.043568,2.609583 -3.808594,4.914062 V 88.451172 H 29.955078 c -0.01559,-5.8214 0.0312,-11.644564 -0.02344,-17.464844 -0.196217,-2.33862 -2.399271,-4.223361 -4.742188,-4.050781 -2.460433,0.0692 -4.499888,2.421631 -4.277344,4.863281 0.01564,7.21293 -0.03126,14.426862 0.02344,21.638672 0.185983,2.37314 2.48332,4.269371 4.845703,4.056641 23.043129,-0.009 46.086401,0.01853 69.128906,-0.01367 2.422417,-0.1183 4.395045,-2.451009 4.177735,-4.855469 -0.01564,-7.21292 0.03126,-14.426852 -0.02344,-21.638672 -0.166712,-2.188602 -2.143231,-3.963558 -4.287109,-4.064453 z"
   style="fill:#dfbb00;stroke-width:2.60875"
   id="path7" /><path
   d="m 94.777344,66.921875 c 2.143878,0.100895 4.120397,1.875851 4.287109,4.064453 0.0547,7.21182 0.0078,14.425752 0.02344,21.638672 0.21731,2.40446 -1.755318,4.737169 -4.177735,4.855469 -23.042505,0.0322 -46.085777,0.0047 -69.128906,0.01367 -2.362383,0.21273 -4.65972,-1.683501 -4.845703,-4.056641 -0.0547,-7.21181 -0.0078,-14.425742 -0.02344,-21.638672 -0.222544,-2.44165 1.816911,-4.794081 4.277344,-4.863281 2.342917,-0.17258 4.545971,1.712161 4.742188,4.050781 0.05464,5.82028 0.0078,11.643444 0.02344,17.464844 H 90.044922 V 71.898437 c -0.234974,-2.304479 1.499836,-4.597582 3.808594,-4.914062 0.308332,-0.05761 0.617559,-0.07691 0.923828,-0.0625 z"
   style="fill:#dfbb00;stroke-width:2.60875"
   id="path6" /><path
   d="m 55.488281,5.0286026 0,56.4870194 C 51.420107,57.4709 47.397344,53.377701 43.300781,49.363278 41.386219,47.710706 38.148377,48.1486 36.753906,50.263669 c -1.381376,1.85501 -0.964265,4.669287 0.814453,6.11914 6.52804,6.509673 13.014865,13.062132 19.56836,19.544922 1.815033,1.55477 4.793036,1.2693 6.320312,-0.55664 6.528855,-6.54906 13.103195,-13.054901 19.603516,-19.63086 1.680371,-1.910338 1.233698,-5.177128 -0.894531,-6.572265 -1.854866,-1.37214 -4.661742,-0.953428 -6.109375,0.820312 -3.841318,3.843167 -7.682378,7.685872 -11.523438,11.529297 -0.01134,-16.915265 0.02213,-39.655874 -0.01758,-56.5704452 0.06299,-5.56087153 -8.972525,-5.52099967 -9.027344,0.081473 z"
   style="fill:url(#linearGradient21);stroke-width:2.60875"
   id="path5"
   sodipodi:nodetypes="ccccccccccccc" /></svg>
