<?xml version="1.0" encoding="UTF-8"?>
<svg id="hand-point-icon" width="100" height="100" version="1.0" xmlns="http://www.w3.org/2000/svg">
	<path id="path82" d="m43.216 3.6839a25.308 25.308 0 0 0-25.307 25.307 25.308 25.308 0 0 0 22.675 25.079c-5.77e-4 0.90809 0 1.8162 0 2.724-1.9826-2.2322-5.0518-3.9165-8.0979-3.1128-2.7268 0.56088-4.8845 3.1643-4.6961 5.9826 0.07753 2.849 1.8243 5.2428 2.8673 7.7986 4.5818 9.6678 9.3657 19.237 14.052 28.854 8.7562-0.13617 17.523 0.05042 26.271-0.40668 2.4388-0.11786 5.0393-1.386 5.8471-3.8367 1.8535-4.5675 3.1495-9.3453 4.3047-14.129 1.0097-5.3391 0.85297-10.805 0.95916-16.214-0.0079-3.5233 0.0457-7.0924-0.60619-10.564-0.98771-3.5924-5.3855-5.3855-8.7604-4.1282-0.75467 0.54959-1.1003 0.08722-1.4912-0.60619-1.9237-2.3456-5.4122-2.8548-8.1516-1.7802a25.308 25.308 0 0 0 5.4429-15.661 25.308 25.308 0 0 0-25.309-25.307zm0 5.4378a19.869 19.869 0 0 1 19.869 19.869 19.869 19.869 0 0 1-4.0464 12.001c-0.692-0.21781-1.4229-0.32141-2.1639-0.25322-0.51686-0.18578-1.6519 0.58666-1.7239-0.0079-0.05605-2.4226-0.06247-4.862-0.27623-7.2769a12.586 12.586 0 0 0 0.92846-4.4607 12.586 12.586 0 0 0-12.587-12.587 12.586 12.586 0 0 0-12.584 12.587 12.586 12.586 0 0 0 9.9651 12.239c-0.0065 2.4572 0.0026 4.9142 0 7.3715a19.869 19.869 0 0 1-17.25-19.613 19.869 19.869 0 0 1 19.869-19.869zm0 11.129a8.7404 8.7404 0 0 1 8.5992 7.2283c-1.1795-0.78886-2.5834-1.252-4.008-1.2201-3.7214-0.06011-7.0138 3.2779-6.9776 6.9853-0.09403 1.3589-0.14502 2.7191-0.1816 4.0797a8.7404 8.7404 0 0 1-6.1719-8.3307 8.7404 8.7404 0 0 1 8.7399-8.7425zm4.5912 11.249c0.69051-0.03182 1.3761 0.32775 1.7239 1.018 0.06456 0.12821 0.1286 1.0159 0.18927 2.1792 0.0643 1.2321 0.12218 2.8891 0.16882 4.9007 0.04256 1.8342 0.07766 3.8148 0.09468 5.9852 0.0065 0.77003 0.01951 1.3654 0.02816 2.0743 0.02672 2.2092 0.06574 4.1025 0.11511 5.668 0.0956 3.0339 0.22433 4.9455 0.38878 5.1437 0.62329 0.75102 2.6437 0.64914 3.3225-0.16625 0.39522-0.47471 0.64126-2.4052 0.78524-6.1719 0.0092-0.24835 0.01676-0.34911 0.02554-0.57549 0.18414-4.7561 0.23634-4.9239 1.2866-5.292 1.8305-0.64167 2.2916-0.42123 2.4094 3.0054 0.03169 0.92346 0.04859 1.9515 0.04859 3.4121 0 5.9487 0.04701 6.3107 0.87731 6.7551 1.2006 0.64254 2.8513 0.14967 3.2765-0.97706 0.19325-0.51215 0.37776-2.3375 0.41181-4.0566 0.07124-3.594 0.9529-5.0465 3.0616-5.0465 1.6658 0 2.013 1.1836 2.013 6.8778 0 4.0472 0.1087 4.8261 0.76477 5.4199 1.0672 0.96578 2.4196 0.865 3.1921-0.23787 0.46798-0.66815 0.65224-1.953 0.65224-4.5452 0-2.9684 0.1352-3.7375 0.76477-4.3073 0.90028-0.81476 2.2139-0.89895 2.9235-0.18927 0.77953 0.77953 0.67891 18.908-0.13043 23.549-0.5834 3.3455-3.534 13.155-4.3354 14.416-0.26753 0.42091-3.0037 0.56339-12.124 0.62921l-11.779 0.08434-7.2922-14.876c-4.0118-8.1822-7.4153-15.376-7.5633-15.986-0.19019-0.78364-0.0867-1.1798 0.35809-1.3505 1.6955-0.65064 4.0455 1.6638 5.865 5.778 1.5388 3.4793 3.2978 4.3696 5.3867 2.7266l1.1049-0.86709v-16.876c0-0.39052 0.0026-0.54295 0.0026-0.91568 4.19e-4 -3.0339 0.0026-5.4662 0.0131-7.4533 0.0079-1.6827 0.03405-2.8367 0.05631-3.9236 0.08159-3.9874 0.26393-4.8872 0.73664-5.315 0.34655-0.31364 0.76227-0.47455 1.1766-0.49366zm13.597 10.891c0.16816 0.15969 0.32682 0.32834 0.47574 0.50644-0.14851-0.17759-0.3081-0.34714-0.47574-0.50644z" style="fill:#fdb01a;stroke-width:1.3096"/>
</svg>
