<?xml version="1.0" encoding="UTF-8" standalone="no"?>
<svg
   id="log-headline"
   width="450"
   height="30"
   version="1.0"
   sodipodi:docname="log-headline.svg"
   inkscape:version="1.4 (1:1.4+202410161351+e7c3feb100)"
   xml:space="preserve"
   xmlns:inkscape="http://www.inkscape.org/namespaces/inkscape"
   xmlns:sodipodi="http://sodipodi.sourceforge.net/DTD/sodipodi-0.dtd"
   xmlns="http://www.w3.org/2000/svg"
   xmlns:svg="http://www.w3.org/2000/svg"><defs
     id="defs1" /><sodipodi:namedview
     id="namedview1"
     pagecolor="#ffffff"
     bordercolor="#111111"
     borderopacity="1"
     inkscape:showpageshadow="0"
     inkscape:pageopacity="0"
     inkscape:pagecheckerboard="1"
     inkscape:deskcolor="#d1d1d1"
     inkscape:zoom="2.8359198"
     inkscape:cx="129.41128"
     inkscape:cy="24.154421"
     inkscape:current-layer="log-headline"
     inkscape:window-width="1280"
     inkscape:window-height="731"
     inkscape:window-x="0"
     inkscape:window-y="0"
     inkscape:window-maximized="1" /><rect
     style="fill:#303030;fill-opacity:1;fill-rule:evenodd;stroke:none;stroke-width:0.0910957px;stroke-linecap:butt;stroke-linejoin:miter;stroke-opacity:1"
     id="rect2"
     width="33.146221"
     height="26.799061"
     x="-16.220488"
     y="-43.724785"
     rx="0.11252793"
     ry="0.80472261" /><text
     xml:space="preserve"
     style="font-size:32px;font-family:Creepster;-inkscape-font-specification:'Creepster, @wght=600';font-variation-settings:'wght' 600;opacity:1;fill:#369085;fill-opacity:1;fill-rule:evenodd;stroke:none;stroke-linecap:round;stroke-linejoin:round;paint-order:stroke fill markers"
     x="29.920738"
     y="-17.952442"
     id="text5"><tspan
       sodipodi:role="line"
       id="tspan5"
       x="29.920738"
       y="-17.952442"
       style="font-style:normal;font-variant:normal;font-weight:normal;font-stretch:normal;font-size:32px;font-family:Raleway;-inkscape-font-specification:'Raleway, Normal';font-variant-ligatures:normal;font-variant-caps:normal;font-variant-numeric:normal;font-variant-east-asian:normal;stroke:none">font raleway</tspan></text><path
     d="M 14.864957,22.215012 V 1.3883689 h 8.829323 q 1.437332,0 2.639997,0.5866659 1.202666,0.586666 2.082665,1.5839982 0.909332,0.9973322 1.407998,2.2293308 0.498666,1.2319986 0.498666,2.5226638 0,1.7599984 -0.821332,3.3439964 -0.821333,1.583998 -2.258664,2.58133 -1.437332,0.997332 -3.402663,0.997332 h -4.927994 v 6.981326 z m 4.047996,-10.530655 h 4.693327 q 0.733333,0 1.319999,-0.410666 0.586666,-0.410666 0.938666,-1.173332 0.351999,-0.7919992 0.351999,-1.7893314 0,-1.0853321 -0.410666,-1.8479979 Q 25.424945,5.7003639 24.779612,5.319031 24.163613,4.9376981 23.430281,4.9376981 h -4.517328 z m 22.997283,-1.437332 q -1.789332,0 -3.19733,0.704 -1.407998,0.674665 -2.023998,1.965331 v 9.298656 H 32.758246 V 6.8443626 h 3.607996 v 3.2853294 q 0.821333,-1.583998 2.082664,-2.4933303 1.261332,-0.9093323 2.669331,-0.9973322 0.322666,0 0.498666,0 0.176,0 0.293333,0.029333 z m 9.105383,12.26132 q -1.877331,0 -3.373329,-0.616 -1.495999,-0.645332 -2.551997,-1.759998 -1.026666,-1.114665 -1.583999,-2.551997 -0.557332,-1.437331 -0.557332,-3.02133 0,-1.613331 0.557332,-3.050663 0.557333,-1.437331 1.583999,-2.5519968 1.055998,-1.1146654 2.551997,-1.7306647 1.495998,-0.6453326 3.373329,-0.6453326 1.877331,0 3.343996,0.6453326 1.495999,0.6159993 2.551997,1.7306647 1.055999,1.1146658 1.583998,2.5519968 0.557333,1.437332 0.557333,3.050663 0,1.583999 -0.557333,3.02133 -0.527999,1.437332 -1.583998,2.551997 -1.026665,1.114666 -2.522663,1.759998 -1.495999,0.616 -3.37333,0.616 z M 46.996957,14.55902 q 0,1.349332 0.527999,2.405331 0.528,1.026665 1.437332,1.613331 0.909332,0.586666 2.053331,0.586666 1.114665,0 2.023998,-0.586666 0.909332,-0.615999 1.437331,-1.642664 0.557333,-1.055999 0.557333,-2.405331 0,-1.319998 -0.557333,-2.375997 -0.527999,-1.055999 -1.437331,-1.642665 -0.909333,-0.586666 -2.023998,-0.586666 -1.143999,0 -2.053331,0.615999 -0.909332,0.586666 -1.437332,1.642665 -0.527999,1.026666 -0.527999,2.375997 z m 23.906666,7.949325 q -1.789331,0 -3.167996,-0.791999 -1.349332,-0.821333 -2.111998,-2.199998 v 8.946656 H 61.692967 V 6.8443626 h 3.431996 v 2.639997 q 0.879999,-1.3493318 2.229331,-2.1119976 1.349332,-0.7919991 3.079997,-0.7919991 1.554664,0 2.84533,0.6159993 1.319998,0.6159993 2.287997,1.7306647 0.967999,1.0853321 1.495998,2.5226641 0.557333,1.407998 0.557333,3.050663 0,2.229331 -0.879999,4.047995 -0.850666,1.818665 -2.375997,2.903997 -1.495999,1.055999 -3.46133,1.055999 z m -1.319998,-3.343997 q 0.909332,0 1.642665,-0.381332 0.733332,-0.381333 1.261332,-1.026666 0.557332,-0.674666 0.821332,-1.495998 0.293333,-0.850666 0.293333,-1.759998 0,-0.967999 -0.322666,-1.789331 -0.293333,-0.821333 -0.879999,-1.437332 -0.586666,-0.645333 -1.378665,-0.997332 -0.762666,-0.352 -1.671999,-0.352 -0.557332,0 -1.143998,0.205333 -0.557333,0.176 -1.085332,0.528 -0.528,0.351999 -0.938666,0.821332 -0.381333,0.469333 -0.557333,1.026665 v 3.607996 q 0.352,0.850666 0.938666,1.554665 0.615999,0.703999 1.407998,1.114666 0.791999,0.381332 1.613332,0.381332 z m 24.991995,3.050664 h -3.930662 v -8.62399 q 0,-1.789332 -0.703999,-2.669331 -0.674666,-0.879999 -1.877332,-0.879999 -0.703999,0 -1.495998,0.410666 -0.791999,0.410667 -1.437331,1.143999 -0.616,0.703999 -0.909333,1.642665 v 8.97599 H 80.290303 V 0.80170286 h 3.930662 V 9.6896927 q 0.850666,-1.466665 2.317331,-2.2879974 1.466665,-0.8213324 3.19733,-0.8213324 1.495998,0 2.434663,0.5279994 0.938666,0.4986661 1.466665,1.3786651 0.528,0.8506657 0.733333,1.9359976 0.205333,1.055999 0.205333,2.199998 z m 10.55999,0.293333 q -1.848,0 -3.344,-0.616 -1.49599,-0.645332 -2.551993,-1.730664 -1.055998,-1.114666 -1.642664,-2.522664 -0.557333,-1.437332 -0.557333,-3.02133 0,-2.199997 0.967999,-4.018662 0.997332,-1.8186646 2.816001,-2.9039967 1.84799,-1.1146654 4.34132,-1.1146654 2.52267,0 4.312,1.1146654 1.78933,1.0853321 2.728,2.9039967 0.96799,1.789331 0.96799,3.871995 0,0.352 -0.0293,0.733333 -0.0293,0.352 -0.0587,0.586666 h -11.87998 q 0.11733,1.173332 0.67466,2.053331 0.58667,0.879999 1.46667,1.349332 0.90933,0.439999 1.936,0.439999 1.17333,0 2.19999,-0.557332 1.056,-0.586666 1.43734,-1.525332 l 3.37333,0.938666 q -0.55734,1.173332 -1.61334,2.082664 -1.02666,0.909332 -2.43466,1.437331 -1.408,0.498667 -3.10933,0.498667 z m -4.01866,-9.210656 h 8.03732 q -0.11733,-1.173332 -0.67466,-2.023998 -0.528,-0.879999 -1.408,-1.349332 -0.88,-0.498666 -1.96533,-0.498666 -1.056,0 -1.936,0.498666 -0.85067,0.469333 -1.408,1.349332 -0.528,0.850666 -0.64533,2.023998 z m 21.61866,9.210656 q -1.87733,0 -3.37332,-0.616 -1.496,-0.645332 -2.552,-1.759998 -1.056,-1.143998 -1.64267,-2.58133 -0.55733,-1.437332 -0.55733,-3.02133 0,-2.170664 0.968,-3.959995 0.99733,-1.8186649 2.816,-2.903997 1.81866,-1.0853321 4.31199,-1.0853321 2.49333,0 4.28266,1.0853321 1.78933,1.0853321 2.66933,2.84533 l -3.84266,1.173332 q -0.49866,-0.850666 -1.32,-1.290665 -0.82133,-0.469333 -1.81866,-0.469333 -1.11467,0 -2.05333,0.586666 -0.90933,0.557333 -1.43733,1.613332 -0.528,1.026665 -0.528,2.40533 0,1.349332 0.528,2.405331 0.55733,1.026665 1.46666,1.642664 0.90933,0.586666 2.024,0.586666 0.704,0 1.32,-0.234666 0.64533,-0.234666 1.144,-0.645333 0.49866,-0.410666 0.73333,-0.938665 l 3.84266,1.173332 q -0.528,1.143999 -1.55466,2.053331 -0.99734,0.909332 -2.376,1.437331 -1.34933,0.498667 -3.05067,0.498667 z m 9.40561,2.698663 q 0.528,0.117333 0.968,0.205333 0.46933,0.088 0.792,0.088 0.55733,0 0.90933,-0.293333 0.38133,-0.264 0.73333,-0.997332 0.352,-0.703999 0.73334,-1.994664 l -6.072,-15.3706494 h 4.07733 l 4.136,11.3519874 3.63733,-11.3519874 h 3.75466 l -6.45333,18.4213124 q -0.352,1.026665 -1.08533,1.847998 -0.704,0.850665 -1.78933,1.319998 -1.056,0.498666 -2.376,0.498666 -0.46933,0 -0.93866,-0.088 -0.46934,-0.05867 -1.02667,-0.234666 z"
     id="text1"
     style="font-size:29.3333px;font-family:Raleway;-inkscape-font-specification:'Raleway, @wght=700';font-variation-settings:'wght' 700;fill:#369085"
     aria-label="Prophecy" /></svg>
