<?xml version="1.0" encoding="UTF-8" standalone="no"?>
<svg
   version="1.0"
   width="100px"
   height="100px"
   id="pls-icon-done"
   sodipodi:docname="pls-icon-done.svg"
   inkscape:version="1.4 (1:1.4+202410161351+e7c3feb100)"
   xml:space="preserve"
   xmlns:inkscape="http://www.inkscape.org/namespaces/inkscape"
   xmlns:sodipodi="http://sodipodi.sourceforge.net/DTD/sodipodi-0.dtd"
   xmlns="http://www.w3.org/2000/svg"
   xmlns:svg="http://www.w3.org/2000/svg"><defs
     id="defs2" /><sodipodi:namedview
     id="namedview2"
     pagecolor="#ffffff"
     bordercolor="#111111"
     borderopacity="1"
     inkscape:showpageshadow="0"
     inkscape:pageopacity="0"
     inkscape:pagecheckerboard="1"
     inkscape:deskcolor="#d1d1d1"
     inkscape:zoom="3.5980918"
     inkscape:cx="31.822423"
     inkscape:cy="60.170783"
     inkscape:current-layer="g2"
     inkscape:window-width="1280"
     inkscape:window-height="731"
     inkscape:window-x="0"
     inkscape:window-y="0"
     inkscape:window-maximized="1" /><metadata
     id="metadata1" /><g
     transform="matrix(0.1,0,0,-0.1,-627.94301,668.07594)"
     fill="#000000"
     stroke="none"
     id="g2"><g
       id="g1"
       style="fill:#fc4a1a;fill-opacity:1"><g
         id="g16"
         transform="matrix(3.0337063,0,0,3.0337063,-13788.214,-12073.276)"
         style="fill:#fc4a1a;fill-opacity:1"><g
           id="g15"
           style="fill:#fc4a1a;fill-opacity:1"><path
             style="fill:#fc4a1a;fill-opacity:1;stroke-width:0.168967"
             d="m 6902.034,5943.2387 c 1.4209,1.421 2.1542,3.702 1.6295,5.0691 -0.8273,2.1562 -17.2526,2.4855 -123.9379,2.4855 -114.8518,0 -123.0579,-0.1924 -124.1015,-2.9123 -2.7393,-7.1383 -1.2381,-7.2256 124.3038,-7.2256 104.995,0 119.8366,0.3141 122.1061,2.5833 z"
             id="path5" /><path
             style="fill:#fc4a1a;fill-opacity:1;stroke-width:0.168967"
             d="m 6925.8334,5919.2903 c 1.9176,1.402 2.7185,3.3676 2.0657,5.0689 -0.9782,2.5492 -13.2215,2.7789 -148.1735,2.7789 -134.9518,0 -147.195,-0.2297 -148.1733,-2.7789 -2.8219,-7.3539 -2.7181,-7.3592 148.1733,-7.3592 117.6431,0 143.5308,0.4058 146.1078,2.2903 z"
             id="path4" /></g></g><path
         d="m 7437.6557,-5668.9298 q 69.4947,0 101.2205,30.2151 32.2295,29.7115 32.2295,82.0844 0,31.2222 -13.0932,58.9194 -13.0932,27.1936 -43.8119,43.8119 -30.2151,16.6183 -82.588,16.6183 h -32.733 v 127.9106 h -76.0413 v -359.5597 z m -4.0287,62.4445 h -34.7474 v 106.7601 h 25.1793 q 32.2294,0 50.862,-12.5897 19.1363,-13.0932 19.1363,-41.7975 0,-52.3729 -60.4302,-52.3729 z m 205.4628,297.1152 v -359.5597 h 76.0413 v 296.6116 h 146.0397 v 62.9481 z m 496.535,-99.7098 q 0,47.8405 -34.7473,76.5449 -34.2438,28.2007 -97.6955,28.2007 -56.9051,0 -101.7242,-21.6541 v -71.0055 q 25.6829,11.0789 52.8764,20.647 27.6972,9.0645 54.8908,9.0645 28.2008,0 39.7832,-10.5753 12.0861,-11.0788 12.0861,-27.6972 0,-13.5967 -9.5682,-23.1649 -9.0645,-9.5681 -24.6756,-17.6254 -15.6112,-8.561 -35.7546,-18.1291 -12.5896,-6.043 -27.1935,-14.1004 -14.604,-8.5609 -28.2008,-20.647 -13.0932,-12.5896 -21.6542,-30.2151 -8.5609,-17.6254 -8.5609,-42.3011 0,-48.3442 32.733,-75.0342 32.733,-27.1936 89.1346,-27.1936 28.2007,0 53.38,6.5467 25.6828,6.5466 53.38,18.6326 l -24.6757,59.423 q -24.6756,-10.0717 -44.3155,-15.6111 -19.6398,-5.5394 -40.2868,-5.5394 -21.6541,0 -33.2366,10.0717 -11.5824,10.0717 -11.5824,26.1864 0,19.1362 17.1219,30.2151 17.1219,11.0788 50.862,27.1936 27.6972,13.0932 46.8335,27.1936 19.6398,14.1003 30.2151,33.2366 10.5752,19.1362 10.5752,47.337 z"
         id="text1"
         style="font-weight:bold;font-size:503.585px;font-family:Roboto;-inkscape-font-specification:'Roboto, Bold';fill-rule:evenodd;stroke-width:47.6301;stroke-linecap:round;stroke-linejoin:round;paint-order:stroke fill markers"
         transform="scale(0.87547399,-1.1422384)"
         aria-label="PLS" /></g></g></svg>
