<?xml version="1.0" encoding="UTF-8" standalone="no"?>
<svg
   version="1.0"
   width="100"
   height="50"
   id="pls-icon"
   sodipodi:docname="satellite-icon.svg"
   inkscape:version="1.4.1-rc (06eac75fbf, 2025-03-29)"
   xml:space="preserve"
   xmlns:inkscape="http://www.inkscape.org/namespaces/inkscape"
   xmlns:sodipodi="http://sodipodi.sourceforge.net/DTD/sodipodi-0.dtd"
   xmlns="http://www.w3.org/2000/svg"
   xmlns:svg="http://www.w3.org/2000/svg"><defs
     id="defs2"><filter
       inkscape:collect="always"
       style="color-interpolation-filters:sRGB"
       id="filter22"
       x="-0.049828719"
       y="-0.076463549"
       width="1.0966414"
       height="1.1517727"><feGaussianBlur
         inkscape:collect="always"
         stdDeviation="2.938015"
         id="feGaussianBlur22" /></filter><filter
       inkscape:collect="always"
       style="color-interpolation-filters:sRGB"
       id="filter23"
       x="-0.049828719"
       y="-0.076463549"
       width="1.0966414"
       height="1.1517727"><feGaussianBlur
         inkscape:collect="always"
         stdDeviation="2.938015"
         id="feGaussianBlur23" /></filter><filter
       inkscape:collect="always"
       style="color-interpolation-filters:sRGB"
       id="filter24"
       x="-0.022295277"
       y="-0.037251672"
       width="1.0445906"
       height="1.0745033"><feGaussianBlur
         inkscape:collect="always"
         stdDeviation="7.6217897"
         id="feGaussianBlur24" /></filter><filter
       inkscape:collect="always"
       style="color-interpolation-filters:sRGB"
       id="filter26"
       x="-0.026862301"
       y="-0.022979843"
       width="1.0537246"
       height="1.0459597"><feGaussianBlur
         inkscape:collect="always"
         stdDeviation="0.75038925"
         id="feGaussianBlur26" /></filter></defs><sodipodi:namedview
     id="namedview2"
     pagecolor="#ffffff"
     bordercolor="#111111"
     borderopacity="1"
     inkscape:showpageshadow="0"
     inkscape:pageopacity="0"
     inkscape:pagecheckerboard="1"
     inkscape:deskcolor="#d1d1d1"
     inkscape:zoom="57.569468"
     inkscape:cx="36.590576"
     inkscape:cy="33.715788"
     inkscape:current-layer="g2"
     showgrid="false"
     inkscape:window-width="1366"
     inkscape:window-height="736"
     inkscape:window-x="0"
     inkscape:window-y="0"
     inkscape:window-maximized="1"
     showguides="false"><sodipodi:guide
       position="-8.2539542,134.89781"
       orientation="0,-1"
       id="guide8"
       inkscape:locked="false" /></sodipodi:namedview><metadata
     id="metadata1" /><g
     transform="matrix(0.1,0,0,-0.1,-627.94301,668.07594)"
     fill="#000000"
     stroke="none"
     id="g2"><g
       id="g4"
       transform="matrix(0.9017667,0,0,0.9017667,665.96576,631.71468)"><path
         id="Sat1rect2861"
         style="fill:#28b1ff;fill-opacity:1;fill-rule:evenodd;stroke-width:4.28221"
         d="m 6694.1529,6581.878 -98.9979,57.1565 -78.3759,-45.2499 98.9979,-57.1564 z" /><path
         id="Sat1rect2843"
         style="fill:#1b76ad;fill-opacity:1;fill-rule:evenodd;stroke-width:4.28221"
         d="m 6795.7505,6523.2208 -98.9979,57.1564 -78.3759,-45.2499 98.9979,-57.1564 z" /><path
         id="Sat1rect2879"
         style="fill:#0e4468;fill-opacity:1;fill-rule:evenodd;stroke-width:4.28221"
         d="m 6712.669,6475.254 -98.9983,57.1564 -78.3759,-45.2499 98.9983,-57.1564 z" /><path
         id="Sat1rect2897"
         style="fill:#1b76ad;fill-opacity:1;fill-rule:evenodd;stroke-width:4.28221"
         d="m 6611.0714,6533.9113 -98.9983,57.1564 -78.3759,-45.2499 98.9983,-57.1564 z" /><path
         id="Sat1rect2917"
         style="fill:#1b76ad;fill-opacity:1;fill-rule:evenodd;stroke-width:4.28221"
         d="m 6546.5649,6619.1229 -98.9979,57.1564 -78.376,-45.2499 98.9979,-57.1564 z" /></g><g
       id="g2940"
       transform="matrix(-0.83154729,1.4402855,1.4402855,0.83154729,6943.3686,6479.9271)"
       fill-rule="evenodd"
       stroke-linecap="round"
       stroke-linejoin="round"
       stroke-width="0.87756"><path
         id="path73337"
         d="m 25,-24.33 c -7.5486,0.0059 -14.096,2.4996 -15.811,6.0215 H 8.73783 c 0.24964,7.7156 11.343,9.5829 16.262,9.5586 5.8114,-0.028719 15.971,-1.9909 16.35,-9.5586 h -0.5164 c -1.7163,-3.526 -8.2766,-6.0208 -15.834,-6.0215 z"
         fill="#3791cc" /><path
         id="path2938"
         d="m 41.336,-18.515 c 0.47822,4.276 -7.3546,7.9976 -16.336,7.9976 -8.9814,0 -16.257,-3.5767 -16.269,-7.8794 -0.00124,-0.43024 -0.033053,-0.95622 0.21439,-1.3181 2.0821,-3.0446 7.9965,-6.384 16.055,-6.384 8.1628,0 14.072,3.0796 16.062,6.4138 0.20647,0.34589 0.22935,0.77548 0.27348,1.1701 z"
         fill="#0b6394" /></g><g
       id="g2947"
       transform="matrix(-1.0414197,1.803796,1.803796,1.0414197,6791.0396,6379.8631)"
       fill-rule="evenodd"
       stroke-width="1.8539"><path
         id="path64195"
         d="m 30.947,61.635 6.8551,9.9596 c 0,3.3595 -5.7889,6.1613 -12.802,6.1613 -7.0131,0 -12.802,-2.8018 -12.802,-6.1613 l 6.8551,-9.9596"
         fill="#b7b7c1" /><g
         id="g2945"
         transform="matrix(0.80941,0,0,0.80941,4.7647,6.6645)"
         fill="#666666"
         stroke-linecap="round"
         stroke-linejoin="round"
         stroke-width="0.8657"><path
           id="path63841"
           d="m 17.652,61.814 v 6.0996 a 7.347,3.5198 0 0 0 7.3477,3.5195 7.347,3.5198 0 0 0 7.3477,-3.5195 V 61.814 Z" /><path
           id="path63381"
           d="M 32.347,61.815 A 7.347,3.5198 0 0 1 25,65.3348 7.347,3.5198 0 0 1 17.653,61.815 7.347,3.5198 0 0 1 25,58.2952 7.347,3.5198 0 0 1 32.347,61.815 Z" /></g></g><g
       id="g2952"
       transform="matrix(-1.5367999,2.6618216,2.6618216,1.5367999,6937.0169,6435.5412)"
       fill-rule="evenodd"
       stroke-linecap="round"
       stroke-linejoin="round"
       stroke-width="0.47484"><path
         id="path63181"
         d="M 25,-24.33 A 16.262,7.7907 0 0 0 9.189,-18.3085 H 8.73783 v 1.7676 a 16.262,7.7907 0 0 0 16.262,7.791 16.262,7.7907 0 0 0 16.262,-7.791 v -1.7676 h -0.42774 a 16.262,7.7907 0 0 0 -15.834,-6.0215 z"
         fill="#3791cc" /><ellipse
         id="ellipse2950"
         cx="25"
         cy="-18.308001"
         rx="16.261999"
         ry="7.7907"
         fill="#0b6394" /></g><g
       id="g2958"
       transform="matrix(-1.5727852,2.7241502,2.7241502,1.5727852,6786.0231,6346.2874)"
       fill-rule="evenodd"
       stroke-linecap="round"
       stroke-linejoin="round"
       stroke-width="0.46397"
       style="fill:#cccccc"><ellipse
         id="ellipse2954"
         cx="25"
         cy="36.922001"
         rx="14.957"
         ry="7.1657"
         fill="#4d4d4d"
         style="fill:#cccccc" /><path
         id="path63175"
         d="m 10.043,29.1 v 7.5566 A 14.957,7.1657 0 0 0 25,43.8226 14.957,7.1657 0 0 0 39.922,36.9222 h 0.03516 v -0.27735 l -0.01367,-7.2305 z"
         fill="#bdbdc7"
         style="fill:#cccccc" /><path
         id="path63177"
         d="m 10.043,29.1 v 7.5566 A 14.957,7.1657 0 0 0 25,43.8226 14.957,7.1657 0 0 0 39.922,36.9222 h 0.03516 v -0.27735 l -0.01367,-7.2305 z"
         fill="#bdbdc7"
         style="fill:#cccccc" /></g><g
       id="g2964"
       transform="matrix(-1.5727852,2.7241502,2.7241502,1.5727852,6772.6178,6338.5479)"
       fill-rule="evenodd"
       stroke-linecap="round"
       stroke-linejoin="round"
       stroke-width="0.46397"
       style="fill:#ececec"><ellipse
         id="ellipse2960"
         cx="25"
         cy="36.922001"
         rx="14.957"
         ry="7.1657"
         fill="#4d4d4d"
         style="fill:#ececec" /><path
         id="path63167"
         d="m 10.043,29.1 v 7.5566 A 14.957,7.1657 0 0 0 25,43.8226 14.957,7.1657 0 0 0 39.922,36.9222 h 0.03516 v -0.27735 l -0.01367,-7.2305 z"
         fill="#bdbdc7"
         style="fill:#ececec" /><path
         id="path63169"
         d="m 10.043,29.1 v 7.5566 A 14.957,7.1657 0 0 0 25,43.8226 14.957,7.1657 0 0 0 39.922,36.9222 h 0.03516 v -0.27735 l -0.01367,-7.2305 z"
         fill="#bdbdc7"
         style="fill:#ececec" /></g><g
       id="g2970"
       transform="matrix(-1.5727852,2.7241502,2.7241502,1.5727852,6778.9586,6342.2087)"
       fill-rule="evenodd"
       stroke-linecap="round"
       stroke-linejoin="round"
       stroke-width="0.46397"><ellipse
         id="ellipse2966"
         cx="25"
         cy="29.365"
         rx="14.957"
         ry="7.1657"
         fill="#4d4d4d" /><ellipse
         id="ellipse2968"
         cx="25"
         cy="29.1"
         rx="14.957"
         ry="7.1657"
         fill="#bdbdc7" /></g><g
       id="g2975"
       transform="matrix(-1.7181106,2.9758616,2.9758616,1.7181106,6905.501,6406.8775)"
       fill-rule="evenodd"
       stroke-linecap="round"
       stroke-linejoin="round"
       stroke-width="0.42473"><path
         id="path60836"
         d="M 25,-24.33 A 16.262,7.7907 0 0 0 9.189,-18.3085 H 8.73783 v 1.7676 a 16.262,7.7907 0 0 0 16.262,7.791 16.262,7.7907 0 0 0 16.262,-7.791 v -1.7676 h -0.42774 a 16.262,7.7907 0 0 0 -15.834,-6.0215 z"
         fill="#3791cc" /><ellipse
         id="ellipse2973"
         cx="25"
         cy="-18.308001"
         rx="16.261999"
         ry="7.7907"
         fill="#0b6394" /></g><g
       id="g2981"
       transform="matrix(-1.5727852,2.7241502,2.5808871,1.4900724,6793.2224,6350.578)"
       style="fill:#e6e6e6;stroke-width:1.2276"><g
         id="gMainSection"
         stroke-width="1.2612"
         style="fill:#e6e6e6"><path
           id="path55416"
           d="M 8.0098,20.231 V -9.956 h 33.98 v 30.187 z"
           fill="#c6c6d0"
           fill-rule="evenodd"
           style="fill:#e6e6e6" /></g><ellipse
         id="ellipse2979"
         cx="25"
         cy="20.231001"
         rx="16.99"
         ry="8.1395998"
         fill="#c6c6d0"
         fill-rule="evenodd"
         stroke-linecap="round"
         stroke-linejoin="round"
         stroke-width="0.47668"
         style="fill:#e6e6e6" /></g><g
       id="gRing_01_blue"
       transform="matrix(-1.7181106,2.9758616,2.9758616,1.7181106,6829.4536,6362.9716)"
       fill-rule="evenodd"
       stroke-linecap="round"
       stroke-linejoin="round"
       stroke-width="0.42473"><path
         id="path55157"
         d="M 25,-24.33 A 16.262,7.7907 0 0 0 9.189,-18.3085 H 8.73783 v 1.7676 a 16.262,7.7907 0 0 0 16.262,7.791 16.262,7.7907 0 0 0 16.262,-7.791 v -1.7676 h -0.42774 a 16.262,7.7907 0 0 0 -15.834,-6.0215 z"
         fill="#3791cc" /><ellipse
         id="ellipse2984"
         cx="25"
         cy="-18.308001"
         rx="16.261999"
         ry="7.7907"
         fill="#0b6394" /></g><ellipse
       id="ellipse2987"
       cx="2181.6819"
       cy="9028.7197"
       rx="53.443333"
       ry="25.603727"
       fill="#999999"
       fill-rule="evenodd"
       stroke-linecap="round"
       stroke-linejoin="round"
       stroke-width="1.45946"
       transform="matrix(-0.49999909,0.86602593,0.86602593,0.49999909,0,0)"
       style="fill:#b3b3b3" /><path
       id="path2989"
       d="m 6700.4375,6387.6778 c 11.3049,-19.5348 27.6503,-32.4497 38.9506,-30.7745 l 0.4608,-0.798 1.9084,1.0876 c 0.6057,0.3436 1.1825,0.6857 1.7255,1.0104 10.7817,6.2235 8.9896,29.5121 -4.0029,52.0157 -12.9926,22.5035 -32.2643,35.699 -43.0453,29.4746 -0.5793,-0.3339 -1.1141,-0.6152 -1.7318,-0.9999 l -1.9023,-1.0982 0.4149,-0.7183 c -7.1111,-8.9637 -4.0785,-29.622 7.2217,-49.1984 z"
       fill="#bdbdc7"
       fill-rule="evenodd"
       stroke-linecap="round"
       stroke-linejoin="round"
       stroke-width="1.45946"
       style="fill:#cccccc" /><g
       id="gRing_00_blue"
       transform="matrix(-1.5727852,2.7241502,2.7241502,1.5727852,6794.7079,6351.3017)"
       fill-rule="evenodd"
       stroke-linecap="round"
       stroke-linejoin="round"
       stroke-width="0.46397"><path
         id="path2991"
         d="M 25,-24.33 A 16.262,7.7907 0 0 0 9.189,-18.3085 H 8.73783 v 1.7676 a 16.262,7.7907 0 0 0 16.262,7.791 16.262,7.7907 0 0 0 16.262,-7.791 v -1.7676 h -0.42774 a 16.262,7.7907 0 0 0 -15.834,-6.0215 z"
         fill="#3791cc" /><ellipse
         id="ellipse843"
         cx="25"
         cy="-18.308001"
         rx="16.261999"
         ry="7.7907"
         fill="#0b6394" /></g><ellipse
       id="ellipse2995"
       cx="2181.6819"
       cy="8999.2227"
       rx="51.02124"
       ry="24.442698"
       fill="#9e9fa4"
       fill-rule="evenodd"
       stroke-linecap="round"
       stroke-linejoin="round"
       stroke-width="1.45946"
       transform="matrix(-0.49999909,0.86602593,0.86602593,0.49999909,0,0)" /><path
       id="path86844"
       d="m 6657.2187,6433.4008 c 30.1136,-5.0577 42.0435,-2.0147 61.6468,-35.8427 17.0604,-30.0536 10.7653,-47.7156 -0.1986,-75.6971 z"
       fill="#cccccc"
       fill-rule="evenodd"
       style="stroke-width:3.86151" /><path
       id="path94841"
       d="m 6657.2187,6433.4008 c 30.1136,-5.0577 42.0435,-2.0147 61.6468,-35.8427 17.0604,-30.0536 10.7653,-47.7156 -0.1986,-75.6971 z"
       fill="url(#linearGradient94849)"
       fill-rule="evenodd"
       style="stroke-width:3.86151" /><ellipse
       id="ellipse3001"
       cx="2181.6819"
       cy="8953.0889"
       rx="85.770416"
       ry="41.090656"
       fill="url(#radialGradient95825)"
       fill-rule="evenodd"
       stroke-linecap="round"
       stroke-linejoin="round"
       stroke-width="1.45946"
       transform="matrix(-0.49999909,0.86602593,0.86602593,0.49999909,0,0)" /><ellipse
       id="ellipse3004"
       cx="-996.3786"
       cy="9105.3115"
       rx="1.5644201"
       ry="0.74950171"
       transform="matrix(-0.7663328,0.64244381,0.64244381,0.7663328,0,0)"
       style="fill:#ffffff;fill-rule:evenodd;stroke-width:1.45952;stroke-linecap:round;stroke-linejoin:round" /><ellipse
       id="ellipse3018"
       cx="2181.6819"
       cy="8953.0889"
       rx="85.770416"
       ry="41.090656"
       fill="url(#radialGradient1840)"
       fill-rule="evenodd"
       stroke-linecap="round"
       stroke-linejoin="round"
       stroke-width="1.45946"
       transform="matrix(-0.49999909,0.86602593,0.86602593,0.49999909,0,0)" /><g
       id="g3023"
       transform="matrix(-1.1947973,3.1868278,3.1868278,1.1947973,6831.446,6328.1843)"
       fill="url(#linearGradient2566)"
       fill-rule="evenodd"
       stroke-linecap="round"
       stroke-linejoin="round"
       stroke-width="0.42882"><path
         id="path2554"
         d="m 24.54,-59.045 v 24.492 c -1.6e-5,0.1948 0.20579,0.35271 0.45967,0.3527 0.25388,1.1e-5 0.45969,-0.15791 0.45967,-0.3527 v -24.492 z" /><ellipse
         id="ellipse3021"
         cx="25"
         cy="-59.044998"
         rx="0.45964"
         ry="0.22021" /></g><path
       id="path3033"
       d="m 6777.1213,6401.0702 c -3.9286,16.4282 -11.1725,29.3688 -23.4423,40.6035 l 54.8725,31.6806 c 13.5796,-10.7459 21.4126,-24.9039 23.4424,-40.6035 z"
       fill="#077a95"
       fill-rule="evenodd"
       stroke-width="3.86151px" /><path
       id="path82065"
       d="m 6766.4538,6428.1532 c 0.1488,-0.3074 0.3386,-0.5322 0.5665,-0.6772 0.2172,-0.1513 0.4609,-0.2495 0.7331,-0.2963 0.3406,-0.066 0.6324,-0.1196 0.8703,-0.157 0.2424,-0.021 0.4917,-0.035 0.7449,-0.05 0.2252,-0.015 0.4587,0.01 0.7065,0.078 0.2647,0.066 0.5819,0.2803 0.9513,0.6393 0.5796,0.4948 1.1851,1.0194 1.8168,1.5735 0.6318,0.554 1.2591,1.0992 1.8755,1.6299 0.2606,0.2232 0.3926,0.3871 0.4027,0.4948 0,0.1186 -0.083,0.2681 -0.2627,0.4553 -0.1998,0.1466 -0.3904,0.2914 -0.5734,0.4334 -0.1783,0.1592 -0.3993,0.31 -0.6552,0.4537 -0.2323,0.1279 -0.4535,0.1754 -0.6644,0.1409 -0.1998,-0.028 -0.444,-0.1373 -0.7342,-0.3339 -0.5219,-0.345 -0.9953,-0.6816 -1.4288,-1.0047 -0.4226,-0.3169 -0.8707,-0.6636 -1.3286,-1.0444 -0.09,0.3558 -0.1804,0.7096 -0.2811,1.0591 -0.1072,0.3605 -0.2201,0.741 -0.3352,1.1405 0.5515,0.4932 1.1286,0.9856 1.7361,1.482 0.6182,0.5025 1.219,1.0007 1.7985,1.4955 0.2648,0.2404 0.4056,0.425 0.4199,0.5499 0.025,0.131 -0.077,0.2955 -0.3078,0.4966 -0.18,0.1873 -0.3692,0.3645 -0.5648,0.5283 -0.191,0.181 -0.4157,0.3382 -0.6714,0.4817 -0.245,0.1498 -0.4731,0.2091 -0.6839,0.1748 -0.2108,-0.034 -0.4633,-0.1405 -0.7598,-0.3263 -0.3614,-0.2232 -0.6967,-0.4406 -1.0086,-0.6497 -0.312,-0.209 -0.6169,-0.4327 -0.9161,-0.6638 -0.161,0.6788 -0.3263,1.3234 -0.4885,1.9289 -0.1687,0.6164 -0.3146,1.2165 -0.4362,1.8016 0.7048,0.5525 1.3844,1.0646 2.0324,1.5407 0.648,0.476 1.2745,0.9412 1.8792,1.3922 0.2883,0.2248 0.4474,0.4121 0.4772,0.5603 0.03,0.1483 -0.06,0.3508 -0.2678,0.6099 -0.199,0.2199 -0.3887,0.4207 -0.5624,0.597 -0.1801,0.1873 -0.4132,0.3713 -0.7052,0.5523 -0.4568,0.3915 -0.9906,0.4019 -1.6006,0.035 -0.6363,-0.3964 -1.2563,-0.8261 -1.8655,-1.2944 -0.6047,-0.451 -1.191,-0.9167 -1.7552,-1.388 -0.5534,-0.4652 -1.0806,-0.9289 -1.5781,-1.3908 -0.4867,-0.4558 -0.9251,-0.8761 -1.3208,-1.2648 z m 12.7093,-21.1493 c 0.1425,-0.2964 0.3069,-0.5116 0.4834,-0.6428 0.1703,-0.1201 0.3899,-0.1767 0.6648,-0.1782 0.2686,0.01 0.5287,0.056 0.781,0.1437 0.2522,0.087 0.5474,0.1781 0.8835,0.2702 0.2803,0.089 0.4454,0.1843 0.5005,0.289 0.066,0.1107 0.076,0.2676 0.03,0.4736 -0.2217,0.6585 -0.4493,1.3308 -0.6835,2.0112 -0.2235,0.6865 -0.452,1.4063 -0.6853,2.16 0.483,-0.1872 1.002,-0.357 1.5499,-0.5067 0.5415,-0.1389 1.0767,-0.2676 1.6056,-0.3845 0.529,-0.117 1.0302,-0.2099 1.5059,-0.2848 0.4758,-0.075 0.8887,-0.1308 1.2384,-0.1619 0.5109,-0.011 0.914,0.055 1.2078,0.1952 0.3107,0.1359 0.5661,0.3068 0.7662,0.5098 0.1758,0.1452 0.3221,0.2617 0.4392,0.3585 0.1218,0.1139 0.2318,0.3046 0.3381,0.5699 0.093,0.2138 0.1227,0.3823 0.081,0.5041 -0.042,0.1216 -0.2277,0.2129 -0.5514,0.2737 -0.3963,0.062 -0.8352,0.1515 -1.3191,0.2653 -0.473,0.12 -0.9543,0.2482 -1.4508,0.3839 -0.4964,0.1357 -0.9899,0.2727 -1.4756,0.4147 -0.4748,0.1482 -0.9178,0.2905 -1.3304,0.431 0.8959,1.2454 1.5916,2.435 2.0909,3.5679 0.5102,1.1393 0.7417,2.1964 0.6851,3.1686 -0.021,0.6133 -0.3204,1.2449 -0.8837,1.8956 -0.5703,0.5882 -1.1449,1.0285 -1.7297,1.3171 -0.5802,0.3058 -1.1795,0.5568 -1.7975,0.7534 -0.7471,0.195 -1.4684,0.1604 -2.1632,-0.1097 -0.6903,-0.253 -1.3547,-0.6524 -1.9928,-1.1955 -0.6336,-0.526 -1.2344,-1.1515 -1.7996,-1.8709 -0.5543,-0.7133 -1.0781,-1.4138 -1.572,-2.1068 -0.097,-0.1576 -0.1181,-0.4327 -0.065,-0.8244 0.047,-0.3807 0.1538,-0.8441 0.3233,-1.3872 0.1632,-0.5321 0.3732,-1.127 0.6226,-1.784 0.2433,-0.6461 0.4995,-1.3101 0.7788,-1.9937 0.2901,-0.6772 0.5853,-1.3504 0.8861,-2.0214 0.2901,-0.6773 0.5696,-1.3118 0.8371,-1.9001 0.2615,-0.5773 0.504,-1.09 0.7239,-1.5457 0.2091,-0.4619 0.3667,-0.8164 0.4776,-1.0583 z m 1.0169,7.752 c -0.2107,0.8396 -0.4148,1.6213 -0.6184,2.3485 -0.2036,0.7272 -0.3778,1.4225 -0.5263,2.0795 0.3019,0.4509 0.6148,0.8226 0.9491,1.1175 0.3344,0.2951 0.6645,0.5335 0.9782,0.7146 0.6381,0.3684 1.1049,0.4387 1.4112,0.2078 0.1721,-0.1483 0.2686,-0.4427 0.2909,-0.8813 0.021,-0.4385 -0.048,-0.9644 -0.2162,-1.5714 -0.175,-0.5961 -0.4471,-1.2468 -0.8166,-1.9555 -0.3652,-0.6912 -0.8506,-1.3777 -1.4518,-2.0597 z m -3.8027,17.523 c 0.078,-0.1041 0.1594,-0.181 0.2497,-0.238 0.1639,-0.1092 0.4034,-0.154 0.7215,-0.1306 0.2964,0.011 0.5955,0.049 0.8884,0.1158 0.3036,0.073 0.619,0.152 0.9443,0.2379 0.3191,0.097 0.5078,0.1979 0.5629,0.3024 0.066,0.1109 0.069,0.2793 0.017,0.4962 -0.1864,0.5477 -0.3972,1.1666 -0.6267,1.864 -0.2252,0.7148 -0.4557,1.473 -0.6971,2.2657 -0.2479,0.8037 -0.4962,1.6156 -0.7457,2.4474 -0.2559,0.8426 -0.4974,1.6662 -0.7279,2.4652 -0.226,0.8161 -0.4403,1.5916 -0.633,2.325 -0.1817,0.7397 -0.3356,1.3994 -0.4678,1.9783 -0.095,0.3386 -0.2176,0.5625 -0.3706,0.678 -0.1425,0.1217 -0.4263,0.1967 -0.8489,0.2295 v 0.01 c -0.4056,0.028 -0.853,0.016 -1.3432,-0.033 -0.4902,-0.05 -0.9266,-0.1269 -1.3123,-0.233 -0.3921,-0.095 -0.6512,-0.2365 -0.7801,-0.4128 -0.1244,-0.1592 -0.1442,-0.4254 -0.059,-0.7984 0.1774,-0.5821 0.3921,-1.2545 0.6486,-2.0237 0.2504,-0.7585 0.5272,-1.5617 0.828,-2.4075 0.3116,-0.8394 0.6329,-1.6966 0.9635,-2.5689 0.3305,-0.8723 0.6582,-1.6941 0.9771,-2.4712 0.3082,-0.7833 0.6037,-1.504 0.8919,-2.1531 0.2711,-0.6445 0.509,-1.16 0.7081,-1.5548 0.066,-0.1513 0.137,-0.2812 0.215,-0.3854 z m 13.9057,-19.2069 c 0.076,-0.1312 0.1626,-0.2244 0.2672,-0.2805 0.1046,-0.056 0.2243,-0.09 0.3597,-0.1 0.129,0 0.2854,0 0.4656,-0.016 0.2235,0.013 0.4472,0.031 0.6644,0.054 0.1998,0.028 0.3849,0.055 0.5568,0.082 0.2994,0.056 0.4986,0.1392 0.5986,0.2407 0.1108,0.1077 0.1538,0.2759 0.1332,0.5116 -0.05,0.4369 -0.102,0.8845 -0.1475,1.3386 -0.052,0.465 -0.089,0.9692 -0.1194,1.5201 0.5218,0.5197 1.1541,1.0677 1.8913,1.6391 0.7417,0.5884 1.4877,1.1704 2.2357,1.748 0.2909,-0.4292 0.5589,-0.824 0.812,-1.1876 0.2471,-0.3526 0.4869,-0.6755 0.7131,-0.9673 0.2196,-0.2809 0.4106,-0.4496 0.5774,-0.5135 0.1775,-0.058 0.4161,-0.055 0.7198,0.019 0.2994,0.056 0.5724,0.1501 0.8167,0.2767 0.2504,0.1155 0.5179,0.254 0.799,0.4163 0.2813,0.1624 0.4323,0.3051 0.464,0.4253 0.042,0.1263 0.013,0.2841 -0.1021,0.4807 -0.5535,0.9329 -1.1474,1.9508 -1.7779,3.043 -0.6257,1.1096 -1.242,2.211 -1.8512,3.3157 -0.609,1.1047 -1.1803,2.1756 -1.7172,3.2055 -0.5369,1.0299 -1.0006,1.9483 -1.3835,2.7612 -0.1505,0.3355 -0.3284,0.575 -0.5394,0.7154 -0.1998,0.1466 -0.5033,0.1862 -0.908,0.1128 -0.2867,-0.078 -0.5784,-0.1511 -0.8713,-0.2183 -0.2821,-0.061 -0.5889,-0.1426 -0.9188,-0.2456 -0.3191,-0.097 -0.6605,-0.2222 -1.0317,-0.3783 -0.3778,-0.1453 -0.7942,-0.3377 -1.2502,-0.5719 -0.5335,-0.2498 -0.878,-0.5442 -1.0303,-0.8797 -0.1522,-0.3355 -0.2247,-0.6959 -0.2167,-1.0845 0.017,-1.0814 0.079,-2.2964 0.1825,-3.6495 0.108,-1.3358 0.234,-2.6875 0.3719,-4.05 0.1485,-1.3561 0.3057,-2.6585 0.4813,-3.9114 0.1648,-1.2593 0.3373,-2.3453 0.5131,-3.2488 0.068,-0.2669 0.1497,-0.4663 0.2424,-0.6021 z m -10.5622,23.6104 c 0.1476,-0.2061 0.5776,-0.3718 1.2868,-0.5012 1.3552,-0.3244 2.5394,-0.4207 3.5568,-0.2848 1.0282,0.1422 1.9747,0.4814 2.838,1.009 0.6426,0.3855 1.1504,0.79 1.5271,1.2114 0.3769,0.4214 0.6622,0.8409 0.8542,1.2576 0.1918,0.4167 0.3111,0.812 0.3546,1.1865 0.038,0.3854 0.042,0.7229 0.017,1.0147 -0.017,0.4277 -0.1366,0.764 -0.3655,1.0106 -0.218,0.2527 -0.5133,0.4403 -0.8855,0.5604 -0.3676,0.1373 -0.7982,0.2231 -1.283,0.2636 -0.4802,0.058 -0.9856,0.1002 -1.5199,0.1267 -0.5236,0.033 -1.0524,0.069 -1.5931,0.107 -0.547,0.048 -1.0716,0.1352 -1.5618,0.2599 -0.3811,0.086 -0.6846,0.2529 -0.9135,0.4994 -0.2351,0.2575 -0.4089,0.5474 -0.5252,0.8734 -0.1227,0.3371 -0.1948,0.6934 -0.2138,1.0758 -0.017,0.3822 0,0.7581 0.048,1.1217 0.054,0.3807 0.1337,0.7293 0.2361,1.0507 0.1071,0.3386 0.2231,0.6123 0.3504,0.8168 0.1172,0.2715 0.2281,0.4151 0.3335,0.4323 0.11,0.034 0.2134,-0.017 0.3061,-0.1531 0.097,-0.1186 0.191,-0.3034 0.28,-0.5578 0.089,-0.2544 0.1754,-0.531 0.2618,-0.8306 0.091,-0.2824 0.1758,-0.5679 0.2559,-0.8566 0.091,-0.2824 0.1867,-0.5293 0.2787,-0.7385 0.4234,-1.008 1.5184,-1.3313 3.2901,-0.9784 0.3398,0.036 0.5607,0.1161 0.6589,0.2456 0.1029,0.1467 0.1552,0.368 0.159,0.6613 -0.013,0.2982 -0.069,0.648 -0.156,1.0491 -0.077,0.4073 -0.1695,0.8234 -0.2868,1.2509 -0.1062,0.4338 -0.2263,0.8501 -0.3587,1.2543 -0.1324,0.4041 -0.2584,0.7612 -0.3791,1.0702 -0.094,0.1638 -0.2027,0.3398 -0.3208,0.5192 -0.1134,0.1967 -0.2492,0.3735 -0.4166,0.539 -0.1568,0.1716 -0.3591,0.3253 -0.598,0.4641 -0.2387,0.1388 -0.5246,0.2523 -0.8607,0.335 -0.5118,0.1123 -1.0929,0.1587 -1.7417,0.1336 -0.638,-0.019 -1.2481,-0.084 -1.8356,-0.1905 -0.3811,-0.089 -0.7279,-0.2176 -1.0371,-0.3813 -0.3153,-0.1531 -0.5923,-0.3213 -0.8265,-0.5148 -0.2345,-0.1936 -0.4287,-0.4012 -0.5774,-0.6182 -0.1551,-0.206 -0.2652,-0.3967 -0.338,-0.5699 -0.2551,-0.4823 -0.4752,-1.0153 -0.6563,-1.6006 -0.1767,-0.568 -0.3069,-1.1525 -0.3917,-1.7549 -0.08,-0.5852 -0.1112,-1.168 -0.097,-1.7422 0.025,-0.568 0.1028,-1.0727 0.2326,-1.5221 0.1181,-0.529 0.2977,-0.9906 0.5418,-1.3884 0.2446,-0.3977 0.5383,-0.7451 0.876,-1.0307 0.3377,-0.2855 0.7063,-0.5189 1.1162,-0.7046 0.4145,-0.1685 0.8435,-0.2868 1.285,-0.3522 0.4027,-0.073 0.8397,-0.1239 1.3073,-0.1597 0.4614,-0.024 0.9211,-0.046 1.3761,-0.06 0.455,-0.014 0.8827,-0.038 1.2882,-0.066 0.4161,-0.022 0.7703,-0.056 1.0596,-0.1078 0.3002,-0.045 0.5214,-0.1162 0.662,-0.2098 0.145,-0.077 0.1787,-0.1925 0.099,-0.3548 -0.1576,-0.426 -0.6264,-0.7601 -1.4023,-0.9896 -0.7759,-0.2295 -1.7892,-0.3134 -3.0427,-0.2652 -0.2251,0.015 -0.4556,-0.014 -0.6926,-0.078 -0.2323,-0.047 -0.4619,-0.1239 -0.6845,-0.2378 -0.2226,-0.114 -0.4311,-0.2503 -0.6285,-0.4079 -0.1973,-0.1576 -0.3681,-0.3359 -0.5125,-0.5357 -0.164,-0.2403 -0.1762,-0.4622 -0.033,-0.6572 z m 13.0378,-16.3656 c -0.091,1.3311 -0.1602,2.6204 -0.218,3.8689 -0.053,1.2655 -0.092,2.4211 -0.1201,3.4682 0.4829,-0.8863 0.9882,-1.7727 1.516,-2.6623 0.5219,-0.8782 1.0502,-1.7593 1.5889,-2.6425 -0.4786,-0.32 -0.9555,-0.6512 -1.4215,-0.9931 -0.4551,-0.3355 -0.903,-0.6817 -1.3456,-1.0392 z m 9.1182,1.0074 c 0.062,-0.1135 0.1214,-0.2106 0.1825,-0.2918 0.1223,-0.1623 0.2589,-0.2824 0.4039,-0.3588 0.1341,-0.083 0.2766,-0.1441 0.4306,-0.1862 0.148,-0.032 0.3027,-0.069 0.4677,-0.1046 0.4183,-0.05 0.7856,-0.085 1.101,-0.1064 0.309,-0.011 0.6607,-0.01 1.0517,0.015 0.776,0.055 1.3848,0.3424 1.8229,0.8575 0.9048,0.9301 1.6338,1.9001 2.1918,2.9067 0.5579,1.0067 0.96,2.0109 1.2044,3.0112 0.2551,1.0066 0.3647,1.9853 0.3314,2.9418 -0.033,0.9566 -0.1864,1.847 -0.4576,2.6662 -0.2665,0.8364 -0.6352,1.5792 -1.1145,2.2345 -0.4793,0.6554 -1.042,1.1901 -1.6853,1.6051 -0.7857,0.5368 -1.5713,0.8791 -2.349,1.0272 -0.7776,0.1481 -1.5366,0.1556 -2.2791,0.018 -0.738,-0.1203 -1.4416,-0.3593 -2.1138,-0.7184 -0.6679,-0.3417 -1.285,-0.7538 -1.8494,-1.225 -0.5704,-0.4605 -1.0751,-0.9511 -1.5175,-1.4833 -0.438,-0.515 -0.795,-1.0075 -1.0735,-1.4741 l 5.064,-10.9488 c 0.063,-0.1458 0.1261,-0.2725 0.1876,-0.3862 z m -11.2491,20.7857 c 0.1488,-0.3074 0.3335,-0.5351 0.5613,-0.6802 0.2171,-0.1513 0.4608,-0.2495 0.7329,-0.2963 0.3407,-0.066 0.6324,-0.1197 0.8703,-0.1571 0.2424,-0.02 0.4918,-0.035 0.745,-0.05 0.2252,-0.015 0.4639,0.011 0.7117,0.081 0.2648,0.066 0.5819,0.2803 0.9515,0.6392 0.5794,0.4948 1.1849,1.0195 1.8167,1.5735 0.6318,0.5541 1.2537,1.0962 1.8701,1.6269 0.2607,0.2232 0.393,0.3871 0.4027,0.4948 0,0.1186 -0.083,0.2681 -0.2631,0.4553 -0.1998,0.1466 -0.3904,0.2914 -0.5733,0.4334 -0.1784,0.1592 -0.3942,0.3131 -0.65,0.4567 -0.2323,0.1279 -0.4535,0.1754 -0.6644,0.141 -0.1998,-0.028 -0.4493,-0.1404 -0.7396,-0.337 -0.5217,-0.345 -0.9951,-0.6816 -1.4286,-1.0047 -0.4227,-0.3169 -0.8655,-0.6605 -1.3234,-1.0414 -0.09,0.3557 -0.1858,0.7066 -0.2866,1.0561 -0.1071,0.3605 -0.2201,0.741 -0.3352,1.1405 0.5516,0.4932 1.1339,0.9887 1.7414,1.485 0.6182,0.5026 1.2138,0.9978 1.7932,1.4926 0.2648,0.2403 0.4056,0.4249 0.42,0.5498 0.025,0.131 -0.077,0.2955 -0.3078,0.4967 -0.1801,0.1873 -0.3694,0.3644 -0.5649,0.5282 -0.191,0.181 -0.4103,0.3412 -0.6662,0.4848 -0.245,0.1497 -0.473,0.2091 -0.6839,0.1748 -0.2107,-0.034 -0.4685,-0.1436 -0.765,-0.3294 -0.3614,-0.2231 -0.6967,-0.4406 -1.0086,-0.6497 -0.312,-0.2091 -0.6169,-0.4328 -0.9161,-0.6639 -0.161,0.6789 -0.3263,1.3235 -0.4886,1.9289 -0.1686,0.6164 -0.3094,1.2197 -0.4309,1.8048 0.7048,0.5525 1.3791,1.0615 2.0272,1.5375 0.648,0.4761 1.2745,0.9412 1.8792,1.3923 0.2883,0.2248 0.4474,0.4121 0.4772,0.5603 0.03,0.1483 -0.055,0.3539 -0.2627,0.6129 -0.1989,0.22 -0.3887,0.4207 -0.5625,0.5971 -0.1799,0.1872 -0.4182,0.3682 -0.7104,0.5491 -0.4567,0.3916 -0.9905,0.402 -1.6006,0.035 -0.6363,-0.3965 -1.2562,-0.8261 -1.8655,-1.2944 -0.6047,-0.4512 -1.1857,-0.9138 -1.75,-1.3851 -0.5533,-0.4651 -1.0804,-0.9288 -1.578,-1.3908 -0.4866,-0.4557 -0.9303,-0.8791 -1.326,-1.2677 z m 14.3432,-18.8943 c -0.5494,1.5761 -1.0738,3.1441 -1.5827,4.6998 -0.5151,1.5667 -1.0016,3.1723 -1.4493,4.8218 0.5705,0.6352 1.1562,0.9976 1.7501,1.0928 0.5938,0.095 1.0931,0.017 1.5022,-0.2419 0.409,-0.2589 0.784,-0.7349 1.1254,-1.4262 0.245,-0.4993 0.4349,-1.0822 0.5618,-1.7517 0.1269,-0.6694 0.1518,-1.3955 0.084,-2.1773 -0.068,-0.7818 -0.2534,-1.6052 -0.5626,-2.4682 -0.3155,-0.8522 -0.7937,-1.7015 -1.4292,-2.5489 z m -4.7364,23.4591 c 0.1426,-0.2965 0.3032,-0.5058 0.4843,-0.6198 0.164,-0.1092 0.3984,-0.1569 0.7058,-0.1397 0.3368,-0.01 0.6581,0.025 0.9617,0.098 0.3082,0.091 0.6117,0.1782 0.9091,0.2625 0.3254,0.086 0.5225,0.184 0.5883,0.2948 0.072,0.1 0.077,0.2539 0.013,0.4645 -0.1729,0.4245 -0.368,0.9246 -0.5844,1.4988 -0.2116,0.5914 -0.4424,1.2223 -0.6875,1.8965 -0.2403,0.6912 -0.4958,1.4113 -0.7678,2.1572 -0.2614,0.7521 -0.5288,1.5048 -0.8008,2.2507 0.4685,-0.4868 0.9462,-0.9673 1.4364,-1.4416 0.4838,-0.4634 0.9628,-0.9109 1.4277,-1.3415 0.4586,-0.4198 0.8929,-0.8136 1.3029,-1.174 0.4208,-0.3542 0.8001,-0.6529 1.147,-0.9041 0.4659,-0.3573 0.9911,-0.4918 1.5741,-0.4028 0.6263,0.114 1.2202,0.2659 1.7743,0.4548 0.6597,0.2061 0.8975,0.5342 0.7227,0.9868 -0.2687,0.8645 -0.5732,1.8667 -0.9155,3.009 -0.3377,1.1594 -0.6818,2.3456 -1.034,3.5549 -0.3415,1.2156 -0.6707,2.4108 -0.9931,3.5936 -0.3226,1.1827 -0.5925,2.2524 -0.8106,3.2044 -0.078,0.3339 -0.1956,0.5843 -0.352,0.756 -0.1523,0.1888 -0.4396,0.2935 -0.8668,0.309 -0.2534,0.014 -0.4771,0.02 -0.6619,0.015 -0.1847,-0.01 -0.3579,-0.017 -0.5192,-0.038 -0.1506,-0.014 -0.2947,-0.041 -0.4434,-0.084 -0.1488,-0.042 -0.32,-0.093 -0.5074,-0.143 -0.3963,-0.1125 -0.6654,-0.2598 -0.8052,-0.4424 -0.1289,-0.1763 -0.1399,-0.4454 -0.044,-0.8122 0.3614,-1.3498 0.7782,-2.8125 1.2546,-4.387 0.4872,-1.5682 1.0351,-3.1304 1.645,-4.6863 -0.4405,0.4884 -0.8952,0.998 -1.361,1.5301 -0.4721,0.543 -0.9234,1.0704 -1.3594,1.576 -0.4423,0.5164 -0.8528,0.9957 -1.2231,1.4373 -0.3702,0.4415 -0.6715,0.8013 -0.9085,1.0868 -0.3043,0.3776 -0.587,0.6359 -0.8475,0.7623 -0.2668,0.1373 -0.6107,0.1775 -1.028,0.1259 -0.5243,-0.041 -1.0099,-0.1137 -1.4578,-0.2121 -0.4478,-0.098 -0.9024,-0.2015 -1.3718,-0.3123 -0.3858,-0.1063 -0.6513,-0.2596 -0.7955,-0.4593 -0.1505,-0.1888 -0.1719,-0.4642 -0.059,-0.8357 0.2091,-0.6366 0.4594,-1.3596 0.7521,-2.1664 0.3035,-0.8005 0.621,-1.6281 0.9561,-2.4833 0.3352,-0.855 0.6884,-1.7095 1.0514,-2.5631 0.3462,-0.8489 0.6814,-1.65 1.0092,-2.3927 0.3107,-0.7381 0.6007,-1.3907 0.8728,-1.9619 0.2614,-0.5773 0.4676,-1.0155 0.6163,-1.323 z m 13.9356,-19.8794 c 0.078,-0.1041 0.1623,-0.1867 0.253,-0.2436 0.164,-0.1092 0.4086,-0.151 0.7268,-0.1275 0.2964,0.011 0.587,0.051 0.8798,0.1182 0.3037,0.073 0.619,0.152 0.9444,0.2379 0.3191,0.097 0.5078,0.198 0.5629,0.3025 0.066,0.1108 0.072,0.2736 0.017,0.4905 -0.1864,0.5477 -0.3972,1.1666 -0.6267,1.8641 -0.2252,0.7147 -0.4557,1.473 -0.697,2.2656 -0.2479,0.8037 -0.4996,1.6213 -0.749,2.453 -0.2559,0.8427 -0.4941,1.6606 -0.7247,2.4596 -0.226,0.8161 -0.4403,1.5917 -0.6329,2.3251 -0.1818,0.7396 -0.3357,1.3992 -0.468,1.9783 -0.095,0.3386 -0.2204,0.568 -0.3736,0.6836 -0.1424,0.1216 -0.4261,0.1967 -0.8488,0.2294 -0.4055,0.028 -0.853,0.016 -1.3432,-0.033 -0.4902,-0.05 -0.9266,-0.1269 -1.3123,-0.233 -0.3921,-0.095 -0.6544,-0.2309 -0.7833,-0.4073 -0.1244,-0.1592 -0.1442,-0.4255 -0.059,-0.7983 0.1775,-0.5821 0.3951,-1.2602 0.6519,-2.0295 0.2504,-0.7583 0.5272,-1.5616 0.828,-2.4073 0.3115,-0.8396 0.6296,-1.6911 0.9602,-2.5635 0.3305,-0.8722 0.6615,-1.6996 0.9804,-2.4767 0.3082,-0.7833 0.6004,-1.4983 0.8887,-2.1475 0.2711,-0.6445 0.5089,-1.1601 0.708,-1.5549 0.066,-0.1512 0.1375,-0.281 0.2154,-0.3853 z m 2.7705,7.6101 c 0.3926,-0.7055 0.8388,-1.3392 1.3344,-1.8977 0.4956,-0.5586 1.0184,-1.0129 1.568,-1.3655 0.339,-0.2122 0.7144,-0.3539 1.1344,-0.4319 0.4198,-0.077 0.8191,-0.1101 1.1993,-0.095 0.4642,0.021 0.9392,0.1117 1.4222,0.274 0.4893,0.1515 0.9514,0.3228 1.3876,0.5163 0.6543,0.2904 1.1864,0.6297 1.5928,1.0246 0.4129,0.3839 0.7379,0.8738 0.9749,1.4622 0.3103,0.9363 0.4464,1.9384 0.4061,3.0074 -0.03,1.0752 -0.1872,2.1462 -0.468,3.2073 -0.2766,1.0782 -0.6506,2.0963 -1.1219,3.0622 -0.4774,0.9769 -1.0055,1.8338 -1.5849,2.5625 -0.3638,0.4306 -0.749,0.7737 -1.158,1.0326 -0.4048,0.2763 -0.9121,0.4609 -1.5186,0.5623 -0.538,0.083 -1.1434,0.068 -1.8255,-0.05 -0.6714,-0.1108 -1.3472,-0.2942 -2.0203,-0.5518 -0.52,-0.1982 -1,-0.5234 -1.4417,-0.9822 -0.4309,-0.4526 -0.7509,-0.9396 -0.9592,-1.4531 -0.2786,-0.8162 -0.4538,-1.6578 -0.5269,-2.5302 -0.068,-0.8551 -0.054,-1.7142 0.051,-2.5708 0.1053,-0.8568 0.2951,-1.6944 0.5662,-2.5136 0.2648,-0.8083 0.5948,-1.5649 0.9876,-2.2702 z m 4.5646,0.1472 c -0.299,0.4681 -0.5756,0.993 -0.8259,1.5766 -0.2569,0.5946 -0.4534,1.1897 -0.5984,1.7906 -0.1514,0.6117 -0.2694,1.2676 -0.3533,1.962 -0.079,0.7115 -0.1101,1.3783 -0.094,1.9994 0.017,0.6211 0.09,1.1413 0.2196,1.5659 0.1236,0.4353 0.3204,0.6841 0.5919,0.7388 0.2542,0.059 0.5435,-0.084 0.868,-0.4207 0.3288,-0.3198 0.6495,-0.7479 0.9648,-1.2941 0.309,-0.5352 0.5982,-1.1404 0.8711,-1.8129 0.2665,-0.6616 0.4787,-1.295 0.6345,-1.8896 0.1973,-0.7163 0.3415,-1.405 0.4233,-2.0714 0.087,-0.6491 0.1058,-1.227 0.066,-1.7311 -0.042,-0.5041 -0.1396,-0.9116 -0.2871,-1.23 -0.148,-0.3184 -0.3525,-0.5077 -0.6236,-0.5623 -0.293,-0.068 -0.6038,0.032 -0.9291,0.2954 -0.3254,0.2637 -0.6347,0.6262 -0.9274,1.0834 z"
       fill="#ffff00"
       fill-rule="evenodd"
       stroke-linecap="round"
       stroke-linejoin="round"
       stroke-width="0.386151" /><path
       id="Sat1rect20"
       style="fill:#1b76ad;fill-opacity:1;fill-rule:evenodd;stroke-width:3.86155"
       d="m 6856.3298,6294.4856 89.2734,-51.5418 70.6769,40.8049 -89.2734,51.5417 z" /><path
       id="Sat1rect21"
       style="fill:#28b1ff;fill-opacity:1;fill-rule:evenodd;stroke-width:3.86155"
       d="m 6764.7125,6347.3808 89.2734,-51.5418 70.6769,40.8049 -89.2734,51.5417 z" /><path
       id="Sat1rect22"
       style="fill:#1b76ad;fill-opacity:1;fill-rule:evenodd;stroke-width:3.86155"
       d="m 6839.6331,6390.6355 89.2729,-51.5417 70.6769,40.8048 -89.273,51.5418 z" /><path
       id="Sat1rect23"
       style="fill:#0e4468;fill-opacity:1;fill-rule:evenodd;stroke-width:3.86155"
       d="m 6931.2504,6337.7403 89.2729,-51.5417 70.6769,40.8048 -89.273,51.5418 z" /><path
       id="Sat1rect24"
       style="fill:#28b1ff;fill-opacity:1;fill-rule:evenodd;stroke-width:3.86155"
       d="m 6989.4199,6260.8993 89.2734,-51.5417 70.6767,40.8049 -89.2733,51.5417 z" /><g
       id="g3"
       transform="matrix(0.83954799,0,0,0.83954799,1096.5528,1033.2468)"
       style="filter:url(#filter24)" /><ellipse
       id="ellipse2999"
       cx="2180.2292"
       cy="8961.8232"
       rx="98.530663"
       ry="47.2038"
       fill="#ececec"
       fill-rule="evenodd"
       stroke-linecap="round"
       stroke-linejoin="round"
       stroke-width="1.67658"
       transform="matrix(-0.49999909,0.86602593,0.86602593,0.49999909,0,0)"
       style="fill:#80e5ff;stroke:#999999" /><path
       id="path26"
       d="m 6604.1822,6318.7753 63.6942,75.3491 c 0.5435,0.6483 0.2991,1.748 -0.5458,2.4563 -0.8448,0.7083 -1.9704,0.757 -2.5138,0.1086 l -63.6942,-75.3491 z"
       style="mix-blend-mode:normal;fill:#4d4d4d;fill-rule:evenodd;stroke-width:1.86225;stroke-linecap:round;stroke-linejoin:round;filter:url(#filter26)" /><path
       id="path79388"
       d="m 6602.3064,6319.021 63.6942,75.3491 c 0.5435,0.6483 0.2991,1.748 -0.5458,2.4563 -0.8448,0.7083 -1.9704,0.757 -2.5138,0.1086 l -63.6942,-75.3491 z"
       style="fill:#ffffff;fill-rule:evenodd;stroke-width:1.86225;stroke-linecap:round;stroke-linejoin:round" /><g
       id="g3011"
       transform="matrix(-1.2362622,4.1630561,4.1630561,1.2362622,6877.1603,6289.9389)"
       fill="#ffffff"
       fill-rule="evenodd"
       stroke-linecap="round"
       stroke-linejoin="round"
       stroke-width="0.42882"><path
         id="path79394"
         d="m 24.54,-59.045 -1.5977,18.049 c -1.6e-5,0.1948 0.20579,0.35271 0.45967,0.3527 0.25388,1.1e-5 0.45969,-0.15791 0.45967,-0.3527 l 1.5977,-18.049 z" /><ellipse
         id="ellipse3009"
         cx="25"
         cy="-59.044998"
         rx="0.45964"
         ry="0.22021" /></g><g
       id="g3016"
       transform="matrix(-1.5244785,4.0661712,4.0661712,1.5244785,6879.2313,6308.314)"
       fill="#ffffff"
       fill-rule="evenodd"
       stroke-linecap="round"
       stroke-linejoin="round"
       stroke-width="0.42882"><path
         id="path78575"
         d="m 24.54,-59.045 v 24.492 c -1.6e-5,0.1948 0.20579,0.35271 0.45967,0.3527 0.25388,1.1e-5 0.45969,-0.15791 0.45967,-0.3527 v -24.492 z" /><ellipse
         id="ellipse3014"
         cx="25"
         cy="-59.044998"
         rx="0.45964"
         ry="0.22021" /></g><path
       id="path3025"
       d="m 6592.8571,6307.3844 10.2188,5.8998 a 5.3226215,6.93693 29.999944 0 1 1.1412,8.6695 5.3226215,6.93693 29.999944 0 1 -8.0785,3.3464 l -10.2189,-5.8999 z"
       fill="#e1e1e6"
       style="fill-rule:evenodd;stroke-width:1.86216;stroke-linecap:round;stroke-linejoin:round;fill:#666666" /><ellipse
       id="ellipse3027"
       cx="2172.8728"
       cy="8863.2734"
       rx="6.9369297"
       ry="3.3233476"
       fill="#cccccc"
       transform="matrix(-0.49999915,0.86602589,0.86602589,0.49999915,0,0)"
       style="fill-rule:evenodd;stroke-width:1.86216;stroke-linecap:round;stroke-linejoin:round" /><ellipse
       id="ellipse3029"
       cx="2172.8728"
       cy="8863.2734"
       rx="6.1553464"
       ry="2.948956"
       fill="#999999"
       transform="matrix(-0.49999915,0.86602589,0.86602589,0.49999915,0,0)"
       style="fill-rule:evenodd;stroke-width:1.86216;stroke-linecap:round;stroke-linejoin:round;fill:#1a1a1a" /><circle
       id="path16"
       style="fill:#000000;stroke:#f9f9f9;stroke-width:10"
       cx="6904.3726"
       cy="-6438.0537"
       r="0.098935321"
       transform="scale(1,-1)" /><circle
       id="path17"
       style="fill:#000000;stroke:#f9f9f9;stroke-width:10"
       cx="6905.355"
       cy="-6440.019"
       r="0.098935321"
       transform="scale(1,-1)" /><circle
       id="path18"
       style="fill:#000000;stroke:#f9f9f9;stroke-width:10"
       cx="7101.8779"
       cy="-6328.001"
       r="0.098935321"
       transform="scale(1,-1)" /><circle
       id="path19"
       style="fill:#000000;stroke:#f9f9f9;stroke-width:10"
       cx="7101.8779"
       cy="-6328.001"
       r="0.098935321"
       transform="scale(1,-1)" /><circle
       id="path20"
       style="fill:#000000;stroke:#f9f9f9;stroke-width:10"
       cx="7091.0688"
       cy="-6427.2451"
       r="0.098935321"
       transform="scale(1,-1)" /><circle
       id="path21"
       style="fill:#000000;stroke:#f9f9f9;stroke-width:10"
       cx="7091.0688"
       cy="-6427.2451"
       r="0.098935321"
       transform="scale(1,-1)" /><path
       style="fill:#000000;fill-opacity:1;stroke:#000000;stroke-width:2;filter:url(#filter23)"
       d="m 6832.6415,6386.4667 182.7662,-106.1223 2.4565,2.4566 -179.8183,106.1222 z"
       id="path22"
       sodipodi:nodetypes="ccccc" /><path
       style="fill:#000000;fill-opacity:1;stroke:#000000;stroke-width:2;filter:url(#filter22)"
       d="m 6535.8922,6574.6372 182.7662,-106.1223 2.4565,2.4566 -179.8183,106.1222 z"
       id="path23"
       sodipodi:nodetypes="ccccc" /></g></svg>
