<?xml version="1.0" encoding="UTF-8" standalone="no"?>
<svg
   xml:space="preserve"
   width="100"
   height="100"
   version="1.1"
   viewBox="0 0 120 100"
   id="update-icon"
   sodipodi:docname="update-icon-on.svg"
   inkscape:version="1.4.1 (1:1.4.1+202503302257+93de688d07)"
   xmlns:inkscape="http://www.inkscape.org/namespaces/inkscape"
   xmlns:sodipodi="http://sodipodi.sourceforge.net/DTD/sodipodi-0.dtd"
   xmlns="http://www.w3.org/2000/svg"
   xmlns:svg="http://www.w3.org/2000/svg"><sodipodi:namedview
   id="namedview1"
   pagecolor="#ffffff"
   bordercolor="#111111"
   borderopacity="1"
   inkscape:showpageshadow="0"
   inkscape:pageopacity="0"
   inkscape:pagecheckerboard="1"
   inkscape:deskcolor="#d1d1d1"
   inkscape:zoom="3.4448719"
   inkscape:cx="30.334945"
   inkscape:cy="46.010419"
   inkscape:current-layer="update-icon"
   inkscape:window-width="1280"
   inkscape:window-height="731"
   inkscape:window-x="0"
   inkscape:window-y="0"
   inkscape:window-maximized="1"
   showguides="true" /><defs
   id="defs1"><inkscape:path-effect
     effect="fillet_chamfer"
     id="path-effect15"
     is_visible="true"
     lpeversion="1"
     nodesatellites_param="F,0,0,1,0,3.8822261,0,1 @ F,0,1,1,0,3.8822261,0,1 @ F,0,1,1,0,3.8822261,0,1 @ F,0,1,1,0,3.8822261,0,1 @ F,0,1,1,0,3.8822261,0,1 @ F,0,1,1,0,3.8822261,0,1"
     radius="0"
     unit="px"
     method="auto"
     mode="F"
     chamfer_steps="1"
     flexible="false"
     use_knot_distance="true"
     apply_no_radius="true"
     apply_with_radius="true"
     only_selected="false"
     hide_knots="false" /><inkscape:path-effect
     effect="fillet_chamfer"
     id="path-effect13"
     is_visible="true"
     lpeversion="1"
     nodesatellites_param="F,0,0,1,0,3.8822261,0,1 @ F,0,1,1,0,3.8822261,0,1 @ F,0,1,1,0,3.8822261,0,1 @ F,0,1,1,0,3.8822261,0,1 @ F,0,1,1,0,3.8822261,0,1 @ F,0,1,1,0,3.8822261,0,1"
     radius="0"
     unit="px"
     method="auto"
     mode="F"
     chamfer_steps="1"
     flexible="false"
     use_knot_distance="true"
     apply_no_radius="true"
     apply_with_radius="true"
     only_selected="false"
     hide_knots="false" /></defs>
 
<g
   id="g1"
   transform="matrix(1.0555983,0,0,1.0555983,-6.2787459,-3.4262371)"><path
     id="path4"
     style="opacity:1;stroke-width:0.907059"
     d="m 51.976751,16.097232 c -0.825073,-0.0021 -1.848933,0.226937 -3.165837,0.772415 -8.428165,3.491059 0.799245,7.665424 -5.651389,14.116062 -6.450642,6.450637 -10.623236,-2.77855 -14.114293,5.649615 -3.491056,8.428163 5.984453,4.855301 5.984453,13.977879 0,9.122579 -9.475509,5.547944 -5.984453,13.976107 3.491057,8.428164 7.663651,-0.79925 14.114293,5.651386 6.450642,6.450638 -2.776784,10.623231 5.651389,14.114291 8.428165,3.491057 4.853532,-5.984444 13.976105,-5.984446 9.12258,0 5.549713,9.475503 13.977878,5.984446 8.428164,-3.49106 -0.801022,-7.663653 5.649614,-14.114291 6.450637,-6.450638 10.625011,2.776778 14.116066,-5.651386 3.491053,-8.428163 -5.986219,-4.853529 -5.986219,-13.976107 0,-9.12258 9.477272,-5.549715 5.986219,-13.977879 -3.491055,-8.428164 -7.665429,0.801021 -14.116066,-5.649615 -6.450638,-6.450637 2.77855,-10.625002 -5.649614,-14.116062 -8.428163,-3.49106 -4.8553,5.986217 -13.977878,5.986217 -7.697178,1e-6 -6.354886,-6.747392 -10.810268,-6.758632 z m 10.418745,14.046971 c -11.718428,2.985014 -17.164877,9.990364 -19.221804,19.16865 0.0457,-8.566119 3.927135,-18.930213 19.221804,-19.16865 z m 0.391523,8.925291 A 11.883025,11.543508 0 0 1 74.670873,50.613203 11.883025,11.543508 0 0 1 62.787019,62.15691 11.883025,11.543508 0 0 1 50.904933,50.613203 11.883025,11.543508 0 0 1 62.787019,39.069494 Z" /><g
     id="g15"><path
       id="path12"
       style="fill:#000000;stroke-width:14.2306"
       d="m 101.80659,21.920094 c 5.91215,8.191836 9.09616,18.036607 9.10078,28.139062 6.8e-4,26.57634 -21.543185,48.121252 -48.119525,48.121875 -5.185893,-0.0027 -10.302813,-0.848379 -15.164063,-2.465625 l 1.48594,-2.578125 c 0.953194,-1.652376 -0.239283,-3.717075 -2.14688,-3.717187 h -11.58047 -0.2414 c -0.16356,-0.114989 -0.32992,-0.225054 -0.49219,-0.342188 -0.11869,0.116554 -0.23522,0.225656 -0.35391,0.342188 h -1.90546 c -1.907597,1.12e-4 -3.100074,2.064811 -2.14688,3.717187 l 0.075,0.13125 c -0.0667,0.06283 -0.135,0.134424 -0.20156,0.196875 0.17891,0.135105 0.36336,0.261 0.54375,0.39375 l 5.37422,9.307024 1.49531,2.59453 c 0.953898,1.65313 3.339852,1.65313 4.29375,0 l 2.625,-4.54453 c 5.84613,2.10783 12.0446,3.22223 18.339843,3.23438 30.039672,3e-4 54.391715,-24.351732 54.391405,-54.391404 -0.004,-18.13852 -8.84232,-29.162735 -10.73167,-31.366346 -2.14028,-2.496268 -6.10118,1.244379 -4.64099,3.227284 z"
       sodipodi:nodetypes="cccccccccccccccccccccsc" /><path
       id="path11"
       style="fill:#000000;stroke-width:14.2306"
       d="m 86.59097,-5.7760008 c -0.885751,-9e-7 -1.704185,0.4726539 -2.146875,1.239844 l -2.095313,3.6304685 C 76.307283,-3.5852188 69.874295,-5.0268748 62.787845,-5.0283448 32.748172,-5.0286498 8.3961316,19.323393 8.3964416,49.363062 c 0.0332,11.959041 4.0069304,23.573775 11.3062504,33.046875 2.23576,2.723845 6.637823,-1.257107 4.36875,-4.514062 -6.09903,-8.263736 -9.39405,-18.262104 -9.40313,-28.532813 6.2e-4,-26.575426 21.54411,-48.1189098 48.119533,-48.1195315 5.702136,0.00476 11.319024,1.0262647 16.603125,2.9742187 l -0.735938,1.275 -1.497656,2.5921875 c -0.953195,1.6523743 0.239279,3.7170733 2.146875,3.7171883 h 11.580469 2.992968 c 1.907596,-1.15e-4 3.10007,-2.064814 2.146875,-3.7171883 L 90.235501,-1.9439695 88.737845,-4.5361568 c -0.44269,-0.7671901 -1.261124,-1.2398449 -2.146875,-1.239844 z"
       sodipodi:nodetypes="scccccccccccccccccs" /></g></g></svg>
