<?xml version="1.0" encoding="UTF-8" standalone="no"?>
<!-- Created with Inkscape (http://www.inkscape.org/) -->

<svg
   width="100"
   height="100"
   version="1.1"
   id="volume-plus-icon"
   inkscape:version="1.4.1 (1:1.4.1+202503302257+93de688d07)"
   sodipodi:docname="volume-plus-icon.svg"
   xml:space="preserve"
   xmlns:inkscape="http://www.inkscape.org/namespaces/inkscape"
   xmlns:sodipodi="http://sodipodi.sourceforge.net/DTD/sodipodi-0.dtd"
   xmlns="http://www.w3.org/2000/svg"
   xmlns:svg="http://www.w3.org/2000/svg"><sodipodi:namedview
     id="namedview1"
     pagecolor="#ffffff"
     bordercolor="#111111"
     borderopacity="1"
     inkscape:showpageshadow="0"
     inkscape:pageopacity="0"
     inkscape:pagecheckerboard="1"
     inkscape:deskcolor="#d1d1d1"
     inkscape:document-units="px"
     inkscape:zoom="3.5046915"
     inkscape:cx="79.179579"
     inkscape:cy="60.918343"
     inkscape:current-layer="layer1"
     inkscape:window-width="1280"
     inkscape:window-height="731"
     inkscape:window-x="0"
     inkscape:window-y="0"
     inkscape:window-maximized="1" /><defs
     id="defs1"><inkscape:path-effect
       effect="fillet_chamfer"
       id="path-effect39"
       is_visible="true"
       lpeversion="1"
       nodesatellites_param="F,0,0,1,0,0,0,1 @ F,0,0,1,0,0,0,1 @ F,0,0,1,0,0,0,1 @ F,0,0,1,0,0,0,1 @ F,0,0,1,0,0,0,1 @ F,0,0,1,0,0,0,1"
       radius="0"
       unit="px"
       method="auto"
       mode="F"
       chamfer_steps="1"
       flexible="false"
       use_knot_distance="true"
       apply_no_radius="true"
       apply_with_radius="true"
       only_selected="false"
       hide_knots="false" /></defs><g
     inkscape:label="Layer 1"
     inkscape:groupmode="layer"
     id="layer1"><circle
       style="opacity:0.85;fill:#ffff00;fill-rule:evenodd;stroke:#ffff00;stroke-linecap:round;stroke-linejoin:round;paint-order:stroke fill markers"
       id="path2"
       cx="-45.320221"
       cy="24.948265"
       r="3.3953261" /><circle
       style="opacity:0.85;fill:#f7b733;fill-opacity:1;fill-rule:evenodd;stroke:#ffff00;stroke-linecap:round;stroke-linejoin:round;paint-order:stroke fill markers"
       id="path3"
       cx="-44.13924"
       cy="40.891537"
       r="3.6905718" /><circle
       style="fill:#49bbaa;fill-opacity:1"
       id="path4"
       cx="-46.26593"
       cy="8.2392015"
       r="4.056169" /><path
       id="path1-5"
       style="fill:#000000;stroke-width:8.06923"
       d="m 49.935018,0.56993546 c -3.073543,0.0480179 -6.147226,0.29181018 -9.165968,0.88795514 -2.755062,0.5173447 -5.46761,1.2793304 -8.091702,2.265046 -3.105045,1.1533709 -6.084393,2.6367753 -8.893,4.3896269 -2.610082,1.6276954 -5.048269,3.5144105 -7.322106,5.5840735 -2.392656,2.24331 -4.591144,4.693765 -6.512006,7.354444 -1.9527082,2.713388 -3.638682,5.618884 -5.0125164,8.667567 -1.3714607,3.048889 -2.4333184,6.237616 -3.1610003,9.501354 -0.7324826,3.26107 -1.128865,6.598374 -1.17974412,9.941088 -0.0516064,2.802075 0.13646349,5.614029 0.57056712,8.383192 0.5053313,3.305163 1.3546752,6.556905 2.5210068,9.689458 1.1500841,3.106658 2.6280672,6.087624 4.3723512,8.901951 1.6287098,2.60902 3.5021957,5.057336 5.5737187,7.329961 2.255247,2.424657 4.732158,4.642803 7.416938,6.583636 2.713388,1.952709 5.618884,3.638682 8.667567,5.012517 3.048889,1.37146 6.237616,2.433318 9.501354,3.161003 3.26107,0.732479 6.598374,1.128862 9.941088,1.179738 2.802074,0.05162 5.614029,-0.136459 8.383192,-0.570562 3.305163,-0.505332 6.556905,-1.354677 9.689457,-2.521008 3.106658,-1.150085 6.087625,-2.628068 8.901952,-4.372353 2.60902,-1.628709 5.057336,-3.502195 7.329961,-5.573718 2.424657,-2.255247 4.642802,-4.732158 6.583636,-7.416938 1.952708,-2.713388 3.638682,-5.618883 5.012517,-8.667567 1.37146,-3.048889 2.433318,-6.237616 3.161003,-9.501354 0.732479,-3.261069 1.128862,-6.598373 1.179738,-9.941088 C 99.45464,48.035884 99.266563,45.223929 98.83246,42.454767 98.327128,39.149603 97.477783,35.897861 96.311451,32.765309 95.161367,29.658651 93.683384,26.677685 91.939099,23.863358 90.31039,21.254337 88.436904,18.806022 86.365381,16.533397 84.110134,14.10874 81.633223,11.890594 78.948443,9.9497602 76.235055,7.997052 73.329559,6.3110782 70.280876,4.9372438 67.231987,3.5657831 64.04326,2.5039254 60.779522,1.7762435 57.518453,1.0437609 54.181148,0.64737847 50.838434,0.59649935 50.537376,0.59013981 50.235833,0.56840898 49.935018,0.56993546 Z M 52.90937,9.2293503 c 3.659541,0.3061409 7.29098,1.0187027 10.749668,2.2657607 3.765871,1.323056 7.319371,3.228095 10.543313,5.57945 3.162875,2.329996 5.979158,5.117859 8.365832,8.237827 2.31486,3.085015 4.211698,6.480195 5.596155,10.081602 1.384303,3.638793 2.245912,7.469918 2.568562,11.34983 0.30917,3.904805 0.04288,7.846841 -0.746496,11.682841 -0.808763,3.775202 -2.138924,7.435629 -3.952411,10.845085 -1.856041,3.4534 -4.206969,6.633827 -6.948137,9.436881 -2.726427,2.738903 -5.82733,5.099212 -9.198654,6.990131 -3.409069,1.88683 -7.081353,3.289595 -10.879833,4.159993 -3.791134,0.839102 -7.695137,1.162248 -11.572306,0.923476 C 43.528558,90.524003 39.662106,89.717287 35.98021,88.383766 32.35343,87.048171 28.917304,85.207079 25.797649,82.924488 22.634774,80.594492 19.818491,77.806629 17.431818,74.68666 15.116957,71.601646 13.220119,68.206466 11.835662,64.605058 10.451359,60.966266 9.5897494,57.135141 9.2670998,53.255228 c -0.3091694,-3.904804 -0.042883,-7.84684 0.7464962,-11.68284 0.808763,-3.775202 2.138924,-7.435629 3.952411,-10.845085 1.856041,-3.453401 4.206969,-6.633828 6.948137,-9.436882 2.726427,-2.738903 5.82733,-5.099212 9.198654,-6.990131 3.409069,-1.886829 7.081353,-3.289595 10.879834,-4.159992 3.791133,-0.839103 7.695136,-1.1622489 11.572305,-0.9234766 0.114811,0.00417 0.229622,0.00836 0.344433,0.012529 z" /><path
       id="rect1-3"
       style="fill:#000000;fill-opacity:1;stroke:none;stroke-width:4.45535"
       d="m 29.859063,44.373875 c -2.864828,-0.01414 -5.445441,2.472228 -5.514186,5.340244 -0.220667,2.861782 2.095822,5.602355 4.951621,5.872064 3.64035,0.09569 7.288058,0.01336 10.931211,0.04085 10.065855,-0.0114 20.132881,0.02279 30.198004,-0.01706 2.830888,-0.123819 5.259036,-2.684344 5.238758,-5.517611 0.113225,-2.833444 -2.227789,-5.463169 -5.051944,-5.692488 -6.463718,-0.06514 -12.930706,-0.0091 -19.395679,-0.02785 -7.119251,0.0012 -14.23859,-0.0025 -21.357785,0.0019 z" /><path
       id="rect1"
       style="fill:#000000;fill-opacity:1;stroke:none;stroke-width:4.45535"
       d="m 55.625649,29.858587 c 0.01414,-2.864828 -2.472228,-5.445441 -5.340244,-5.514185 -2.861781,-0.220668 -5.602355,2.095822 -5.872064,4.95162 -0.09569,3.64035 -0.01336,7.288058 -0.04085,10.931212 0.0114,10.065854 -0.02279,20.132881 0.01706,30.198003 0.123818,2.830889 2.684343,5.259036 5.51761,5.238758 2.833444,0.113226 5.463169,-2.227789 5.692488,-5.051944 0.06514,-6.463718 0.0091,-12.930706 0.02785,-19.395679 -0.0012,-7.11925 0.0025,-14.23859 -0.0019,-21.357785 z" /></g></svg>
