<?xml version="1.0" encoding="UTF-8" standalone="no"?>
<!-- Created with Inkscape (http://www.inkscape.org/) -->

<svg
   width="100"
   height="100"
   version="1.1"
   id="volume-plus-icon"
   inkscape:version="1.4.1 (1:1.4.1+202503302257+93de688d07)"
   sodipodi:docname="volume-minus-icon.svg"
   xml:space="preserve"
   xmlns:inkscape="http://www.inkscape.org/namespaces/inkscape"
   xmlns:sodipodi="http://sodipodi.sourceforge.net/DTD/sodipodi-0.dtd"
   xmlns="http://www.w3.org/2000/svg"
   xmlns:svg="http://www.w3.org/2000/svg"><sodipodi:namedview
     id="namedview1"
     pagecolor="#ffffff"
     bordercolor="#111111"
     borderopacity="1"
     inkscape:showpageshadow="0"
     inkscape:pageopacity="0"
     inkscape:pagecheckerboard="1"
     inkscape:deskcolor="#d1d1d1"
     inkscape:document-units="px"
     inkscape:zoom="3.5046915"
     inkscape:cx="115.98739"
     inkscape:cy="48.649076"
     inkscape:current-layer="g1"
     inkscape:window-width="1280"
     inkscape:window-height="731"
     inkscape:window-x="0"
     inkscape:window-y="0"
     inkscape:window-maximized="1" /><defs
     id="defs1"><inkscape:path-effect
       effect="fillet_chamfer"
       id="path-effect39"
       is_visible="true"
       lpeversion="1"
       nodesatellites_param="F,0,0,1,0,0,0,1 @ F,0,0,1,0,0,0,1 @ F,0,0,1,0,0,0,1 @ F,0,0,1,0,0,0,1 @ F,0,0,1,0,0,0,1 @ F,0,0,1,0,0,0,1"
       radius="0"
       unit="px"
       method="auto"
       mode="F"
       chamfer_steps="1"
       flexible="false"
       use_knot_distance="true"
       apply_no_radius="true"
       apply_with_radius="true"
       only_selected="false"
       hide_knots="false" /></defs><g
     inkscape:label="Layer 1"
     inkscape:groupmode="layer"
     id="layer1"><circle
       style="opacity:0.85;fill:#ffff00;fill-rule:evenodd;stroke:#ffff00;stroke-linecap:round;stroke-linejoin:round;paint-order:stroke fill markers"
       id="path2"
       cx="-45.320221"
       cy="24.948265"
       r="3.3953261" /><circle
       style="opacity:0.85;fill:#f7b733;fill-opacity:1;fill-rule:evenodd;stroke:#ffff00;stroke-linecap:round;stroke-linejoin:round;paint-order:stroke fill markers"
       id="path3"
       cx="-44.13924"
       cy="40.891537"
       r="3.6905718" /><circle
       style="fill:#49bbaa;fill-opacity:1"
       id="path4"
       cx="-46.26593"
       cy="8.2392015"
       r="4.056169" /><g
       id="g1"
       transform="translate(0.2576567,0.47091967)"
       style="opacity:1;fill:#000000"><path
         id="path1"
         style="fill:#000000;stroke-width:8.11582"
         d="m 49.676858,-0.18609543 c -3.091289,0.0482952 -6.18272,0.29349515 -9.218893,0.89308236 -2.77097,0.52033197 -5.499182,1.28671757 -8.138426,2.27812487 -3.122294,1.1601707 -6.11892,2.6507964 -8.942633,4.4147439 -2.627528,1.6346006 -5.077928,3.5354963 -7.366969,5.6155523 -2.405326,2.257442 -4.616739,4.72187 -6.5487404,7.397905 C 7.497213,23.142368 5.801504,26.064641 4.4197368,29.130928 3.040641,32.197491 1.9715766,35.404369 1.241539,38.687401 0.50723565,41.96763 0.10417943,45.323553 0.05392801,48.685635 c -0.05239107,2.818368 0.13764298,5.646563 0.57572903,8.431598 0.50869366,3.323989 1.35953386,6.595184 2.53369626,9.745407 1.156725,3.124596 2.6432423,6.122775 4.3975981,8.953353 1.6381143,2.624085 3.5224186,5.086538 5.6059026,7.372284 2.268269,2.438659 4.759482,4.669613 7.459764,6.621653 2.729453,1.964304 5.652015,3.660814 8.720078,5.040211 3.037875,1.362554 6.209319,2.4344 9.46119,3.156529 2.78011,0.628755 5.618685,1.025802 8.466653,1.154741 3.32606,0.173971 6.670498,9.56e-4 9.961793,-0.503622 3.324753,-0.50586 6.597927,-1.348106 9.750555,-2.517103 2.90279,-1.070326 5.690733,-2.427233 8.352991,-4.001119 2.816735,-1.716909 5.48143,-3.682964 7.917616,-5.909586 2.477807,-2.272193 4.732919,-4.787359 6.708955,-7.508545 1.94948,-2.699189 3.643298,-5.586845 5.016116,-8.621862 1.173067,-2.563972 2.120128,-5.235813 2.831319,-7.963963 0.856574,-3.251261 1.380571,-6.590819 1.554264,-9.947918 0.181457,-3.357869 0.01989,-6.733789 -0.478945,-10.058678 C 98.434475,39.068457 97.668724,36.063518 96.671404,33.13607 95.573865,30.058416 94.208207,27.076218 92.540419,24.264542 90.831002,21.369824 88.830752,18.646298 86.568997,16.157721 84.631161,14.024558 82.517619,12.04127 80.229544,10.287165 77.659802,8.2698579 74.870952,6.5341919 71.953362,5.0688029 68.946449,3.5629971 65.784097,2.3709783 62.536585,1.5024395 59.547525,0.70108707 56.485523,0.20540076 53.402479,-0.04572729 52.163387,-0.12494922 50.917716,-0.14272491 49.676858,-0.18609543 Z m 2.995263,8.70941613 c 3.68043,0.3013288 7.330188,1.026585 10.808003,2.2788443 3.794907,1.332327 7.373159,3.255915 10.62291,5.622808 3.17312,2.342769 6.000339,5.142157 8.397288,8.274252 2.326301,3.103527 4.233627,6.518431 5.626601,10.139816 1.390399,3.660988 2.265784,7.513541 2.584397,11.417526 0.306062,3.925712 0.04753,7.889788 -0.74971,11.745977 -0.816098,3.797238 -2.152542,7.480062 -3.977342,10.909865 -1.854214,3.442821 -4.185729,6.625479 -6.922968,9.419784 -2.773997,2.814182 -5.952599,5.218873 -9.399259,7.150899 -3.408617,1.868456 -7.070117,3.268548 -10.860446,4.1352 -3.813024,0.843948 -7.739569,1.16896 -11.639126,0.928809 C 43.233447,90.287295 39.344693,89.475654 35.641473,88.134791 31.993751,86.791484 28.537784,84.939761 25.400115,82.643989 22.218977,80.30054 19.386433,77.496579 16.985978,74.358595 14.657752,71.255767 12.749961,67.840983 11.35751,64.21878 9.9654132,60.558954 9.0988996,56.70565 8.7741158,52.803414 8.4631611,48.876062 8.7309848,44.911264 9.5249219,41.053114 10.338356,37.256113 11.676197,33.57455 13.500155,30.145407 c 1.867062,-3.47306 4.230489,-6.672852 6.989167,-9.490526 2.734628,-2.75203 5.84665,-5.123524 9.232811,-7.019082 3.45914,-1.924909 7.195127,-3.336386 11.053045,-4.2210864 3.784794,-0.8262424 7.678754,-1.141359 11.54679,-0.9041125 0.116717,0.00424 0.233435,0.00848 0.350153,0.012721 z" /><path
         id="rect1"
         style="fill:#000000;fill-opacity:1;stroke:none;stroke-width:4.48108"
         d="m 29.484981,43.870777 c -2.88062,-0.01333 -5.478264,2.48524 -5.546025,5.371081 -0.22125,2.877571 2.107851,5.634926 4.980212,5.90597 3.884731,0.092 7.776274,0.01273 11.663596,0.03922 9.930512,-0.01373 19.862339,0.02743 29.79203,-0.02054 2.880138,-0.173113 5.297433,-2.847575 5.180085,-5.730959 0.02373,-2.884025 -2.479545,-5.47814 -5.361692,-5.55447 -13.568714,-0.02715 -27.139089,-0.0065 -40.708206,-0.0103 z" /></g></g></svg>
